<?xml version="1.0" encoding="UTF-8" standalone="no"?>
<svg
   version="1.1"
   x="0"
   y="0"
   width="768"
   height="1024"
   viewBox="0, 0, 768, 1024"
   id="svg689"
   sodipodi:docname="matchbox.svg"
   inkscape:version="1.2.1 (9c6d41e4, 2022-07-14)"
   xmlns:inkscape="http://www.inkscape.org/namespaces/inkscape"
   xmlns:sodipodi="http://sodipodi.sourceforge.net/DTD/sodipodi-0.dtd"
   xmlns="http://www.w3.org/2000/svg"
   xmlns:svg="http://www.w3.org/2000/svg">
  <sodipodi:namedview
     id="namedview691"
     pagecolor="#ffffff"
     bordercolor="#000000"
     borderopacity="0.25"
     inkscape:showpageshadow="2"
     inkscape:pageopacity="0.0"
     inkscape:pagecheckerboard="0"
     inkscape:deskcolor="#d1d1d1"
     showgrid="false"
     inkscape:zoom="1.7128906"
     inkscape:cx="509.37286"
     inkscape:cy="724.21437"
     inkscape:window-width="1738"
     inkscape:window-height="1027"
     inkscape:window-x="0"
     inkscape:window-y="57"
     inkscape:window-maximized="0"
     inkscape:current-layer="Layer_1" />
  <defs
     id="defs299">
    <linearGradient
       id="Gradient_1"
       gradientUnits="userSpaceOnUse"
       x1="88.233"
       y1="480"
       x2="88.233"
       y2="360">
      <stop
         offset="0"
         stop-color="#515151"
         id="stop2" />
      <stop
         offset="0.378"
         stop-color="#000000"
         id="stop4" />
      <stop
         offset="0.655"
         stop-color="#121212"
         id="stop6" />
      <stop
         offset="1"
         stop-color="#515151"
         id="stop8" />
    </linearGradient>
    <linearGradient
       id="Gradient_2"
       gradientUnits="userSpaceOnUse"
       x1="420"
       y1="120"
       x2="420"
       y2="0">
      <stop
         offset="0"
         stop-color="#001156"
         id="stop11" />
      <stop
         offset="0.297"
         stop-color="#000000"
         id="stop13" />
      <stop
         offset="0.697"
         stop-color="#0D0D0D"
         id="stop15" />
      <stop
         offset="1"
         stop-color="#570600"
         id="stop17" />
    </linearGradient>
    <linearGradient
       id="Gradient_3"
       gradientUnits="userSpaceOnUse"
       x1="540"
       y1="120"
       x2="540"
       y2="0">
      <stop
         offset="0"
         stop-color="#001156"
         id="stop20" />
      <stop
         offset="0.297"
         stop-color="#000000"
         id="stop22" />
      <stop
         offset="0.697"
         stop-color="#0D0D0D"
         id="stop24" />
      <stop
         offset="1"
         stop-color="#570600"
         id="stop26" />
    </linearGradient>
    <linearGradient
       id="Gradient_4"
       gradientUnits="userSpaceOnUse"
       x1="180"
       y1="120"
       x2="180"
       y2="0">
      <stop
         offset="0"
         stop-color="#001156"
         id="stop29" />
      <stop
         offset="0.297"
         stop-color="#000000"
         id="stop31" />
      <stop
         offset="0.697"
         stop-color="#0D0D0D"
         id="stop33" />
      <stop
         offset="1"
         stop-color="#570600"
         id="stop35" />
    </linearGradient>
    <linearGradient
       id="Gradient_5"
       gradientUnits="userSpaceOnUse"
       x1="60"
       y1="120"
       x2="60"
       y2="0">
      <stop
         offset="0"
         stop-color="#001156"
         id="stop38" />
      <stop
         offset="0.297"
         stop-color="#000000"
         id="stop40" />
      <stop
         offset="0.697"
         stop-color="#0D0D0D"
         id="stop42" />
      <stop
         offset="1"
         stop-color="#570600"
         id="stop44" />
    </linearGradient>
    <linearGradient
       id="Gradient_6"
       gradientUnits="userSpaceOnUse"
       x1="300"
       y1="120"
       x2="300"
       y2="0">
      <stop
         offset="0"
         stop-color="#001156"
         id="stop47" />
      <stop
         offset="0.297"
         stop-color="#000000"
         id="stop49" />
      <stop
         offset="0.697"
         stop-color="#0D0D0D"
         id="stop51" />
      <stop
         offset="1"
         stop-color="#570600"
         id="stop53" />
    </linearGradient>
    <linearGradient
       id="Gradient_7"
       gradientUnits="userSpaceOnUse"
       x1="420"
       y1="240"
       x2="420"
       y2="120">
      <stop
         offset="0"
         stop-color="#570600"
         id="stop56" />
      <stop
         offset="0.297"
         stop-color="#000000"
         id="stop58" />
      <stop
         offset="0.697"
         stop-color="#0D0D0D"
         id="stop60" />
      <stop
         offset="1"
         stop-color="#570600"
         id="stop62" />
    </linearGradient>
    <linearGradient
       id="Gradient_8"
       gradientUnits="userSpaceOnUse"
       x1="540"
       y1="240"
       x2="540"
       y2="120">
      <stop
         offset="0"
         stop-color="#570600"
         id="stop65" />
      <stop
         offset="0.297"
         stop-color="#000000"
         id="stop67" />
      <stop
         offset="0.697"
         stop-color="#0D0D0D"
         id="stop69" />
      <stop
         offset="1"
         stop-color="#570600"
         id="stop71" />
    </linearGradient>
    <linearGradient
       id="Gradient_9"
       gradientUnits="userSpaceOnUse"
       x1="180"
       y1="240"
       x2="180"
       y2="120">
      <stop
         offset="0"
         stop-color="#570600"
         id="stop74" />
      <stop
         offset="0.297"
         stop-color="#000000"
         id="stop76" />
      <stop
         offset="0.697"
         stop-color="#0D0D0D"
         id="stop78" />
      <stop
         offset="1"
         stop-color="#570600"
         id="stop80" />
    </linearGradient>
    <linearGradient
       id="Gradient_10"
       gradientUnits="userSpaceOnUse"
       x1="60"
       y1="240"
       x2="60"
       y2="120">
      <stop
         offset="0"
         stop-color="#570600"
         id="stop83" />
      <stop
         offset="0.297"
         stop-color="#000000"
         id="stop85" />
      <stop
         offset="0.697"
         stop-color="#0D0D0D"
         id="stop87" />
      <stop
         offset="1"
         stop-color="#570600"
         id="stop89" />
    </linearGradient>
    <linearGradient
       id="Gradient_11"
       gradientUnits="userSpaceOnUse"
       x1="300"
       y1="240"
       x2="300"
       y2="120">
      <stop
         offset="0"
         stop-color="#570600"
         id="stop92" />
      <stop
         offset="0.297"
         stop-color="#000000"
         id="stop94" />
      <stop
         offset="0.697"
         stop-color="#0D0D0D"
         id="stop96" />
      <stop
         offset="1"
         stop-color="#570600"
         id="stop98" />
    </linearGradient>
    <linearGradient
       id="Gradient_12"
       gradientUnits="userSpaceOnUse"
       x1="420"
       y1="360"
       x2="420"
       y2="240">
      <stop
         offset="0"
         stop-color="#001156"
         id="stop101" />
      <stop
         offset="0.297"
         stop-color="#000000"
         id="stop103" />
      <stop
         offset="0.697"
         stop-color="#0D0D0D"
         id="stop105" />
      <stop
         offset="1"
         stop-color="#001156"
         id="stop107" />
    </linearGradient>
    <linearGradient
       id="Gradient_13"
       gradientUnits="userSpaceOnUse"
       x1="540"
       y1="360"
       x2="540"
       y2="240">
      <stop
         offset="0"
         stop-color="#001156"
         id="stop110" />
      <stop
         offset="0.297"
         stop-color="#000000"
         id="stop112" />
      <stop
         offset="0.697"
         stop-color="#0D0D0D"
         id="stop114" />
      <stop
         offset="1"
         stop-color="#001156"
         id="stop116" />
    </linearGradient>
    <linearGradient
       id="Gradient_14"
       gradientUnits="userSpaceOnUse"
       x1="180"
       y1="360"
       x2="180"
       y2="240">
      <stop
         offset="0"
         stop-color="#001156"
         id="stop119" />
      <stop
         offset="0.297"
         stop-color="#000000"
         id="stop121" />
      <stop
         offset="0.697"
         stop-color="#0D0D0D"
         id="stop123" />
      <stop
         offset="1"
         stop-color="#001156"
         id="stop125" />
    </linearGradient>
    <linearGradient
       id="Gradient_15"
       gradientUnits="userSpaceOnUse"
       x1="60"
       y1="360"
       x2="60"
       y2="240">
      <stop
         offset="0"
         stop-color="#001156"
         id="stop128" />
      <stop
         offset="0.297"
         stop-color="#000000"
         id="stop130" />
      <stop
         offset="0.697"
         stop-color="#0D0D0D"
         id="stop132" />
      <stop
         offset="1"
         stop-color="#001156"
         id="stop134" />
    </linearGradient>
    <linearGradient
       id="Gradient_16"
       gradientUnits="userSpaceOnUse"
       x1="300"
       y1="360"
       x2="300"
       y2="240">
      <stop
         offset="0"
         stop-color="#001156"
         id="stop137" />
      <stop
         offset="0.297"
         stop-color="#000000"
         id="stop139" />
      <stop
         offset="0.697"
         stop-color="#0D0D0D"
         id="stop141" />
      <stop
         offset="1"
         stop-color="#001156"
         id="stop143" />
    </linearGradient>
    <linearGradient
       id="Gradient_17"
       gradientUnits="userSpaceOnUse"
       x1="60"
       y1="480"
       x2="60"
       y2="360">
      <stop
         offset="0"
         stop-color="#001156"
         id="stop146" />
      <stop
         offset="0.297"
         stop-color="#000000"
         id="stop148" />
      <stop
         offset="0.697"
         stop-color="#0D0D0D"
         id="stop150" />
      <stop
         offset="1"
         stop-color="#001156"
         id="stop152" />
    </linearGradient>
    <linearGradient
       id="Gradient_18"
       gradientUnits="userSpaceOnUse"
       x1="180"
       y1="480"
       x2="180"
       y2="360">
      <stop
         offset="0"
         stop-color="#001156"
         id="stop155" />
      <stop
         offset="0.297"
         stop-color="#000000"
         id="stop157" />
      <stop
         offset="0.697"
         stop-color="#0D0D0D"
         id="stop159" />
      <stop
         offset="1"
         stop-color="#001156"
         id="stop161" />
    </linearGradient>
    <linearGradient
       id="Gradient_19"
       gradientUnits="userSpaceOnUse"
       x1="300"
       y1="480"
       x2="300"
       y2="360">
      <stop
         offset="0"
         stop-color="#572800"
         id="stop164" />
      <stop
         offset="0.297"
         stop-color="#000000"
         id="stop166" />
      <stop
         offset="0.697"
         stop-color="#0D0D0D"
         id="stop168" />
      <stop
         offset="1"
         stop-color="#572800"
         id="stop170" />
    </linearGradient>
    <linearGradient
       id="Gradient_20"
       gradientUnits="userSpaceOnUse"
       x1="420"
       y1="480"
       x2="420"
       y2="360">
      <stop
         offset="0"
         stop-color="#572800"
         id="stop173" />
      <stop
         offset="0.297"
         stop-color="#000000"
         id="stop175" />
      <stop
         offset="0.697"
         stop-color="#0D0D0D"
         id="stop177" />
      <stop
         offset="1"
         stop-color="#572800"
         id="stop179" />
    </linearGradient>
    <linearGradient
       id="Gradient_21"
       gradientUnits="userSpaceOnUse"
       x1="300"
       y1="600"
       x2="300"
       y2="480">
      <stop
         offset="0"
         stop-color="#572800"
         id="stop182" />
      <stop
         offset="0.297"
         stop-color="#000000"
         id="stop184" />
      <stop
         offset="0.697"
         stop-color="#0D0D0D"
         id="stop186" />
      <stop
         offset="1"
         stop-color="#572800"
         id="stop188" />
    </linearGradient>
    <linearGradient
       id="Gradient_22"
       gradientUnits="userSpaceOnUse"
       x1="420"
       y1="600"
       x2="420"
       y2="480">
      <stop
         offset="0"
         stop-color="#572800"
         id="stop191" />
      <stop
         offset="0.297"
         stop-color="#000000"
         id="stop193" />
      <stop
         offset="0.697"
         stop-color="#0D0D0D"
         id="stop195" />
      <stop
         offset="1"
         stop-color="#572800"
         id="stop197" />
    </linearGradient>
    <linearGradient
       id="Gradient_23"
       gradientUnits="userSpaceOnUse"
       x1="60"
       y1="720"
       x2="60"
       y2="600">
      <stop
         offset="0"
         stop-color="#0D3500"
         id="stop200" />
      <stop
         offset="0.297"
         stop-color="#000000"
         id="stop202" />
      <stop
         offset="0.697"
         stop-color="#0D0D0D"
         id="stop204" />
      <stop
         offset="1"
         stop-color="#0D3500"
         id="stop206" />
    </linearGradient>
    <linearGradient
       id="Gradient_24"
       gradientUnits="userSpaceOnUse"
       x1="180"
       y1="720"
       x2="180"
       y2="600">
      <stop
         offset="0"
         stop-color="#0D3500"
         id="stop209" />
      <stop
         offset="0.297"
         stop-color="#000000"
         id="stop211" />
      <stop
         offset="0.697"
         stop-color="#0D0D0D"
         id="stop213" />
      <stop
         offset="1"
         stop-color="#0D3500"
         id="stop215" />
    </linearGradient>
    <linearGradient
       id="Gradient_25"
       gradientUnits="userSpaceOnUse"
       x1="300"
       y1="720"
       x2="300"
       y2="600">
      <stop
         offset="0"
         stop-color="#0D3500"
         id="stop218" />
      <stop
         offset="0.297"
         stop-color="#000000"
         id="stop220" />
      <stop
         offset="0.697"
         stop-color="#0D0D0D"
         id="stop222" />
      <stop
         offset="1"
         stop-color="#0D3500"
         id="stop224" />
    </linearGradient>
    <linearGradient
       id="Gradient_26"
       gradientUnits="userSpaceOnUse"
       x1="420"
       y1="720"
       x2="420"
       y2="600">
      <stop
         offset="0"
         stop-color="#0D3500"
         id="stop227" />
      <stop
         offset="0.297"
         stop-color="#000000"
         id="stop229" />
      <stop
         offset="0.697"
         stop-color="#0D0D0D"
         id="stop231" />
      <stop
         offset="1"
         stop-color="#0D3500"
         id="stop233" />
    </linearGradient>
    <linearGradient
       id="Gradient_27"
       gradientUnits="userSpaceOnUse"
       x1="540"
       y1="720"
       x2="540"
       y2="600">
      <stop
         offset="0"
         stop-color="#0D3500"
         id="stop236" />
      <stop
         offset="0.297"
         stop-color="#000000"
         id="stop238" />
      <stop
         offset="0.697"
         stop-color="#0D0D0D"
         id="stop240" />
      <stop
         offset="1"
         stop-color="#0D3500"
         id="stop242" />
    </linearGradient>
    <linearGradient
       id="Gradient_28"
       gradientUnits="userSpaceOnUse"
       x1="660"
       y1="720"
       x2="660"
       y2="600">
      <stop
         offset="0"
         stop-color="#0D3500"
         id="stop245" />
      <stop
         offset="0.297"
         stop-color="#000000"
         id="stop247" />
      <stop
         offset="0.697"
         stop-color="#0D0D0D"
         id="stop249" />
      <stop
         offset="1"
         stop-color="#0D3500"
         id="stop251" />
    </linearGradient>
    <linearGradient
       id="Gradient_29"
       gradientUnits="userSpaceOnUse"
       x1="59.217"
       y1="840"
       x2="59.217"
       y2="720">
      <stop
         offset="0"
         stop-color="#0D3500"
         id="stop254" />
      <stop
         offset="0.297"
         stop-color="#000000"
         id="stop256" />
      <stop
         offset="0.697"
         stop-color="#0D0D0D"
         id="stop258" />
      <stop
         offset="1"
         stop-color="#0D3500"
         id="stop260" />
    </linearGradient>
    <linearGradient
       id="Gradient_30"
       gradientUnits="userSpaceOnUse"
       x1="180"
       y1="840"
       x2="180"
       y2="720">
      <stop
         offset="0"
         stop-color="#0D3500"
         id="stop263" />
      <stop
         offset="0.297"
         stop-color="#000000"
         id="stop265" />
      <stop
         offset="0.697"
         stop-color="#0D0D0D"
         id="stop267" />
      <stop
         offset="1"
         stop-color="#0D3500"
         id="stop269" />
    </linearGradient>
    <linearGradient
       id="Gradient_31"
       gradientUnits="userSpaceOnUse"
       x1="300"
       y1="840"
       x2="300"
       y2="720">
      <stop
         offset="0"
         stop-color="#515151"
         id="stop272" />
      <stop
         offset="0.297"
         stop-color="#000000"
         id="stop274" />
      <stop
         offset="0.697"
         stop-color="#0D0D0D"
         id="stop276" />
      <stop
         offset="1"
         stop-color="#515151"
         id="stop278" />
    </linearGradient>
    <linearGradient
       id="Gradient_32"
       gradientUnits="userSpaceOnUse"
       x1="180"
       y1="960"
       x2="180"
       y2="840">
      <stop
         offset="0"
         stop-color="#515151"
         id="stop281" />
      <stop
         offset="0.297"
         stop-color="#000000"
         id="stop283" />
      <stop
         offset="0.697"
         stop-color="#0D0D0D"
         id="stop285" />
      <stop
         offset="1"
         stop-color="#515151"
         id="stop287" />
    </linearGradient>
    <linearGradient
       id="Gradient_33"
       gradientUnits="userSpaceOnUse"
       x1="300"
       y1="960"
       x2="300"
       y2="840">
      <stop
         offset="0"
         stop-color="#515151"
         id="stop290" />
      <stop
         offset="0.297"
         stop-color="#000000"
         id="stop292" />
      <stop
         offset="0.697"
         stop-color="#0D0D0D"
         id="stop294" />
      <stop
         offset="1"
         stop-color="#515151"
         id="stop296" />
    </linearGradient>
  </defs>
  <g
     id="Layer_1"
     inkscape:label="Layer_1">
    <path
       d="M28.233,360 L148.233,360 L148.233,480 L28.233,480 L28.233,360 z"
       fill="url(#Gradient_1)"
       id="path301" />
    <g
       id="g311">
      <path
         d="M360,0 L480,0 L480,120 L360,120 L360,0 z"
         fill="url(#Gradient_2)"
         id="path303" />
      <g
         id="g309">
        <path
           d="M443.767,60.492 C443.189,61.526 443.542,61.163 442.849,61.701 L415.169,77.734 C413.864,78.49 412.232,77.545 412.233,76.033 L412.233,43.967 C412.232,42.455 413.864,41.51 415.169,42.266 L442.849,58.299 C443.826,58.958 443.767,59.426 443.767,60.492 z"
           fill="#BB37F2"
           id="path305" />
        <path
           d="M398.034,78 C397.039,78 396.232,77.194 396.233,76.2 L396.233,43.8 C396.232,42.806 397.039,42 398.034,42 L406.431,42 C407.426,42 408.232,42.806 408.233,43.8 L408.233,76.2 C408.232,77.194 407.426,78 406.431,78 L398.034,78 z"
           fill="#BB37F2"
           id="path307" />
      </g>
    </g>
    <g
       id="g323">
      <path
         d="M480,0 L600,0 L600,120 L480,120 L480,0 z"
         fill="url(#Gradient_3)"
         id="path313" />
      <g
         id="g321">
        <path
           d="M571.767,60.492 C571.189,61.526 571.541,61.163 570.849,61.701 L543.168,77.734 C541.863,78.49 540.232,77.545 540.232,76.033 L540.232,43.967 C540.232,42.455 541.863,41.51 543.168,42.266 L570.849,58.299 C571.826,58.958 571.767,59.426 571.767,60.492 z"
           fill="#BB37F2"
           id="path315" />
        <path
           d="M510.034,78 C509.039,78 508.233,77.194 508.233,76.2 L508.233,43.8 C508.233,42.806 509.039,42 510.034,42 L518.431,42 C519.426,42 520.233,42.806 520.233,43.8 L520.233,76.2 C520.233,77.194 519.426,78 518.431,78 L510.034,78 z"
           fill="#BB37F2"
           id="path317" />
        <path
           d="M526.034,78 C525.039,78 524.232,77.194 524.232,76.2 L524.232,43.8 C524.232,42.806 525.039,42 526.034,42 L534.431,42 C535.426,42 536.232,42.806 536.232,43.8 L536.232,76.2 C536.232,77.194 535.426,78 534.431,78 L526.034,78 z"
           fill="#BB37F2"
           id="path319" />
      </g>
    </g>
    <g
       id="g333"
       inkscape:label="rev1_purple">
      <path
         d="M120,0 L240,0 L240,120 L120,120 L120,0 z"
         fill="url(#Gradient_4)"
         id="path325" />
      <g
         id="g331">
        <path
           d="M156.233,59.508 C156.811,58.474 156.458,58.837 157.151,58.299 L184.831,42.266 C186.136,41.51 187.768,42.455 187.767,43.967 L187.767,76.033 C187.768,77.545 186.136,78.49 184.831,77.734 L157.151,61.701 C156.174,61.042 156.233,60.574 156.233,59.508 z"
           fill="#BB37F2"
           id="path327" />
        <path
           d="M201.966,42 C202.961,42 203.768,42.806 203.767,43.8 L203.767,76.2 C203.768,77.194 202.961,78 201.966,78 L193.569,78 C192.574,78 191.768,77.194 191.767,76.2 L191.767,43.8 C191.768,42.806 192.574,42 193.569,42 L201.966,42 z"
           fill="#BB37F2"
           id="path329" />
      </g>
    </g>
    <g
       id="g345"
       inkscape:label="rev10_purple">
      <path
         d="M0,0 L120,0 L120,120 L0,120 L0,0 z"
         fill="url(#Gradient_5)"
         id="path335" />
      <g
         id="g343">
        <path
           d="M28.233,59.508 C28.811,58.474 28.459,58.837 29.151,58.299 L56.832,42.266 C58.137,41.51 59.768,42.455 59.768,43.967 L59.768,76.033 C59.768,77.545 58.137,78.49 56.832,77.734 L29.151,61.701 C28.174,61.042 28.233,60.574 28.233,59.508 z"
           fill="#BB37F2"
           id="path337" />
        <path
           d="M89.966,42 C90.961,42 91.767,42.806 91.767,43.8 L91.767,76.2 C91.767,77.194 90.961,78 89.966,78 L81.569,78 C80.574,78 79.767,77.194 79.767,76.2 L79.767,43.8 C79.767,42.806 80.574,42 81.569,42 L89.966,42 z"
           fill="#BB37F2"
           id="path339" />
        <path
           d="M73.966,42 C74.961,42 75.768,42.806 75.768,43.8 L75.768,76.2 C75.768,77.194 74.961,78 73.966,78 L65.569,78 C64.574,78 63.768,77.194 63.768,76.2 L63.768,43.8 C63.768,42.806 64.574,42 65.569,42 L73.966,42 z"
           fill="#BB37F2"
           id="path341" />
      </g>
    </g>
    <g
       id="g357">
      <path
         d="M240,0 L360,0 L360,120 L240,120 L240,0 z"
         fill="url(#Gradient_6)"
         id="path347" />
      <g
         id="g355">
        <path
           d="M299.695,60.492 C299.118,61.526 299.47,61.163 298.778,61.701 L271.097,77.734 C269.792,78.49 268.161,77.545 268.161,76.033 L268.161,43.967 C268.161,42.455 269.792,41.51 271.097,42.266 L298.778,58.299 C299.755,58.958 299.695,59.426 299.695,60.492 z"
           fill="#BB37F2"
           id="path349" />
        <path
           d="M305.641,78 C304.646,78 303.84,77.194 303.84,76.2 L303.84,43.8 C303.84,42.806 304.646,42 305.641,42 L314.038,42 C315.033,42 315.84,42.806 315.84,43.8 L315.84,76.2 C315.84,77.194 315.033,78 314.038,78 L305.641,78 z"
           fill="#BB37F2"
           id="path351" />
        <path
           d="M321.641,78 C320.646,78 319.839,77.194 319.839,76.2 L319.839,43.8 C319.839,42.806 320.646,42 321.641,42 L330.038,42 C331.033,42 331.839,42.806 331.839,43.8 L331.839,76.2 C331.839,77.194 331.033,78 330.038,78 L321.641,78 z"
           fill="#BB37F2"
           id="path353" />
      </g>
    </g>
    <g
       id="g367">
      <path
         d="M360,120 L480,120 L480,240 L360,240 L360,120 z"
         fill="url(#Gradient_7)"
         id="path359" />
      <g
         id="g365">
        <path
           d="M443.767,180.492 C443.189,181.526 443.542,181.163 442.849,181.701 L415.169,197.734 C413.864,198.49 412.232,197.545 412.233,196.033 L412.233,163.967 C412.232,162.455 413.864,161.51 415.169,162.266 L442.849,178.299 C443.826,178.958 443.767,179.426 443.767,180.492 z"
           fill="#F42300"
           id="path361" />
        <path
           d="M398.034,198 C397.039,198 396.232,197.194 396.233,196.2 L396.233,163.8 C396.232,162.806 397.039,162 398.034,162 L406.431,162 C407.426,162 408.232,162.806 408.233,163.8 L408.233,196.2 C408.232,197.194 407.426,198 406.431,198 L398.034,198 z"
           fill="#F42300"
           id="path363" />
      </g>
    </g>
    <g
       id="g379">
      <path
         d="M480,120 L600,120 L600,240 L480,240 L480,120 z"
         fill="url(#Gradient_8)"
         id="path369" />
      <g
         id="g377">
        <path
           d="M571.767,180.492 C571.189,181.526 571.541,181.163 570.849,181.701 L543.168,197.734 C541.863,198.49 540.232,197.545 540.232,196.033 L540.232,163.967 C540.232,162.455 541.863,161.51 543.168,162.266 L570.849,178.299 C571.826,178.958 571.767,179.426 571.767,180.492 z"
           fill="#F42300"
           id="path371" />
        <path
           d="M510.034,198 C509.039,198 508.233,197.194 508.233,196.2 L508.233,163.8 C508.233,162.806 509.039,162 510.034,162 L518.431,162 C519.426,162 520.233,162.806 520.233,163.8 L520.233,196.2 C520.233,197.194 519.426,198 518.431,198 L510.034,198 z"
           fill="#F42300"
           id="path373" />
        <path
           d="M526.034,198 C525.039,198 524.232,197.194 524.232,196.2 L524.232,163.8 C524.232,162.806 525.039,162 526.034,162 L534.431,162 C535.426,162 536.232,162.806 536.232,163.8 L536.232,196.2 C536.232,197.194 535.426,198 534.431,198 L526.034,198 z"
           fill="#F42300"
           id="path375" />
      </g>
    </g>
    <g
       id="g389">
      <path
         d="M120,120 L240,120 L240,240 L120,240 L120,120 z"
         fill="url(#Gradient_9)"
         id="path381" />
      <g
         id="g387">
        <path
           d="M156.233,179.508 C156.811,178.474 156.458,178.837 157.151,178.299 L184.831,162.266 C186.136,161.51 187.768,162.455 187.767,163.967 L187.767,196.033 C187.768,197.545 186.136,198.49 184.831,197.734 L157.151,181.701 C156.174,181.042 156.233,180.574 156.233,179.508 z"
           fill="#F42300"
           id="path383" />
        <path
           d="M201.966,162 C202.961,162 203.768,162.806 203.767,163.8 L203.767,196.2 C203.768,197.194 202.961,198 201.966,198 L193.569,198 C192.574,198 191.768,197.194 191.767,196.2 L191.767,163.8 C191.768,162.806 192.574,162 193.569,162 L201.966,162 z"
           fill="#F42300"
           id="path385" />
      </g>
    </g>
    <g
       id="g401">
      <path
         d="M0,120 L120,120 L120,240 L0,240 L0,120 z"
         fill="url(#Gradient_10)"
         id="path391" />
      <g
         id="g399">
        <path
           d="M28.233,179.508 C28.811,178.474 28.459,178.837 29.151,178.299 L56.832,162.266 C58.137,161.51 59.768,162.455 59.768,163.967 L59.768,196.033 C59.768,197.545 58.137,198.49 56.832,197.734 L29.151,181.701 C28.174,181.042 28.233,180.574 28.233,179.508 z"
           fill="#F42300"
           id="path393" />
        <path
           d="M89.966,162 C90.961,162 91.767,162.806 91.767,163.8 L91.767,196.2 C91.767,197.194 90.961,198 89.966,198 L81.569,198 C80.574,198 79.767,197.194 79.767,196.2 L79.767,163.8 C79.767,162.806 80.574,162 81.569,162 L89.966,162 z"
           fill="#F42300"
           id="path395" />
        <path
           d="M73.966,162 C74.961,162 75.768,162.806 75.768,163.8 L75.768,196.2 C75.768,197.194 74.961,198 73.966,198 L65.569,198 C64.574,198 63.768,197.194 63.768,196.2 L63.768,163.8 C63.768,162.806 64.574,162 65.569,162 L73.966,162 z"
           fill="#F42300"
           id="path397" />
      </g>
    </g>
    <g
       id="PP_red">
      <path
         d="M240,120 L360,120 L360,240 L240,240 L240,120 z"
         fill="url(#Gradient_11)"
         id="path403" />
      <g
         id="g411">
        <path
           d="M299.695,180.492 C299.118,181.526 299.47,181.163 298.778,181.701 L271.097,197.734 C269.792,198.49 268.161,197.545 268.161,196.033 L268.161,163.967 C268.161,162.455 269.792,161.51 271.097,162.266 L298.778,178.299 C299.755,178.958 299.695,179.426 299.695,180.492 z"
           fill="#F42300"
           id="path405" />
        <path
           d="M305.641,198 C304.646,198 303.84,197.194 303.84,196.2 L303.84,163.8 C303.84,162.806 304.646,162 305.641,162 L314.038,162 C315.033,162 315.84,162.806 315.84,163.8 L315.84,196.2 C315.84,197.194 315.033,198 314.038,198 L305.641,198 z"
           fill="#F42300"
           id="path407" />
        <path
           d="M321.641,198 C320.646,198 319.839,197.194 319.839,196.2 L319.839,163.8 C319.839,162.806 320.646,162 321.641,162 L330.038,162 C331.033,162 331.839,162.806 331.839,163.8 L331.839,196.2 C331.839,197.194 331.033,198 330.038,198 L321.641,198 z"
           fill="#F42300"
           id="path409" />
      </g>
    </g>
    <g
       id="g422">
      <path
         d="M360,240 L480,240 L480,360 L360,360 L360,240 z"
         fill="url(#Gradient_12)"
         id="path414" />
      <g
         id="g420">
        <path
           d="M443.767,300.492 C443.189,301.526 443.542,301.163 442.849,301.701 L415.169,317.734 C413.864,318.49 412.232,317.545 412.233,316.033 L412.233,283.967 C412.232,282.455 413.864,281.51 415.169,282.266 L442.849,298.299 C443.826,298.958 443.767,299.426 443.767,300.492 z"
           fill="#00A8AA"
           id="path416" />
        <path
           d="M398.034,318 C397.039,318 396.232,317.194 396.233,316.2 L396.233,283.8 C396.232,282.806 397.039,282 398.034,282 L406.431,282 C407.426,282 408.232,282.806 408.233,283.8 L408.233,316.2 C408.232,317.194 407.426,318 406.431,318 L398.034,318 z"
           fill="#00A8AA"
           id="path418" />
      </g>
    </g>
    <g
       id="g434">
      <path
         d="M480,240 L600,240 L600,360 L480,360 L480,240 z"
         fill="url(#Gradient_13)"
         id="path424" />
      <g
         id="g432">
        <path
           d="M571.767,300.492 C571.189,301.526 571.541,301.163 570.849,301.701 L543.168,317.734 C541.863,318.49 540.232,317.545 540.232,316.033 L540.232,283.967 C540.232,282.455 541.863,281.51 543.168,282.266 L570.849,298.299 C571.826,298.958 571.767,299.426 571.767,300.492 z"
           fill="#00A8AA"
           id="path426" />
        <path
           d="M510.034,318 C509.039,318 508.233,317.194 508.233,316.2 L508.233,283.8 C508.233,282.806 509.039,282 510.034,282 L518.431,282 C519.426,282 520.233,282.806 520.233,283.8 L520.233,316.2 C520.233,317.194 519.426,318 518.431,318 L510.034,318 z"
           fill="#00A8AA"
           id="path428" />
        <path
           d="M526.034,318 C525.039,318 524.232,317.194 524.232,316.2 L524.232,283.8 C524.232,282.806 525.039,282 526.034,282 L534.431,282 C535.426,282 536.232,282.806 536.232,283.8 L536.232,316.2 C536.232,317.194 535.426,318 534.431,318 L526.034,318 z"
           fill="#00A8AA"
           id="path430" />
      </g>
    </g>
    <g
       id="g444"
       inkscape:label="rev1_blue">
      <path
         d="M120,240 L240,240 L240,360 L120,360 L120,240 z"
         fill="url(#Gradient_14)"
         id="path436" />
      <g
         id="g442">
        <path
           d="M156.233,299.508 C156.811,298.474 156.458,298.837 157.151,298.299 L184.831,282.266 C186.136,281.51 187.768,282.455 187.767,283.967 L187.767,316.033 C187.768,317.545 186.136,318.49 184.831,317.734 L157.151,301.701 C156.174,301.042 156.233,300.574 156.233,299.508 z"
           fill="#00A8AA"
           id="path438" />
        <path
           d="M201.966,282 C202.961,282 203.768,282.806 203.767,283.8 L203.767,316.2 C203.768,317.194 202.961,318 201.966,318 L193.569,318 C192.574,318 191.768,317.194 191.767,316.2 L191.767,283.8 C191.768,282.806 192.574,282 193.569,282 L201.966,282 z"
           fill="#00A8AA"
           id="path440" />
      </g>
    </g>
    <g
       id="g456"
       inkscape:label="rev10_blue">
      <path
         d="M0,240 L120,240 L120,360 L0,360 L0,240 z"
         fill="url(#Gradient_15)"
         id="path446" />
      <g
         id="g454">
        <path
           d="M28.233,299.508 C28.811,298.474 28.459,298.837 29.151,298.299 L56.832,282.266 C58.137,281.51 59.768,282.455 59.768,283.967 L59.768,316.033 C59.768,317.545 58.137,318.49 56.832,317.734 L29.151,301.701 C28.174,301.042 28.233,300.574 28.233,299.508 z"
           fill="#00A8AA"
           id="path448" />
        <path
           d="M89.966,282 C90.961,282 91.767,282.806 91.767,283.8 L91.767,316.2 C91.767,317.194 90.961,318 89.966,318 L81.569,318 C80.574,318 79.767,317.194 79.767,316.2 L79.767,283.8 C79.767,282.806 80.574,282 81.569,282 L89.966,282 z"
           fill="#00A8AA"
           id="path450" />
        <path
           d="M73.966,282 C74.961,282 75.768,282.806 75.768,283.8 L75.768,316.2 C75.768,317.194 74.961,318 73.966,318 L65.569,318 C64.574,318 63.768,317.194 63.768,316.2 L63.768,283.8 C63.768,282.806 64.574,282 65.569,282 L73.966,282 z"
           fill="#00A8AA"
           id="path452" />
      </g>
    </g>
    <g
       id="g468"
       inkscape:label="playpause_blue">
      <path
         d="M240,240 L360,240 L360,360 L240,360 L240,240 z"
         fill="url(#Gradient_16)"
         id="path458" />
      <g
         id="g466">
        <path
           d="M299.695,300.492 C299.118,301.526 299.47,301.163 298.778,301.701 L271.097,317.734 C269.792,318.49 268.161,317.545 268.161,316.033 L268.161,283.967 C268.161,282.455 269.792,281.51 271.097,282.266 L298.778,298.299 C299.755,298.958 299.695,299.426 299.695,300.492 z"
           fill="#00A8AA"
           id="path460" />
        <path
           d="M305.641,318 C304.646,318 303.84,317.194 303.84,316.2 L303.84,283.8 C303.84,282.806 304.646,282 305.641,282 L314.038,282 C315.033,282 315.84,282.806 315.84,283.8 L315.84,316.2 C315.84,317.194 315.033,318 314.038,318 L305.641,318 z"
           fill="#00A8AA"
           id="path462" />
        <path
           d="M321.641,318 C320.646,318 319.839,317.194 319.839,316.2 L319.839,283.8 C319.839,282.806 320.646,282 321.641,282 L330.038,282 C331.033,282 331.839,282.806 331.839,283.8 L331.839,316.2 C331.839,317.194 331.033,318 330.038,318 L321.641,318 z"
           fill="#00A8AA"
           id="path464" />
      </g>
    </g>
    <g
       id="g478"
       inkscape:label="prev_match">
      <path
         d="M0,360 L120,360 L120,480 L0,480 L0,360 z"
         fill="url(#Gradient_17)"
         id="path470" />
      <g
         id="g476">
        <path
           d="M52.2,402 C53.194,402 54,402.807 54,403.801 L54,406.199 C54,407.194 53.194,408 52.2,408 L42,408 L42,432 L52.2,432 C53.194,432 54,432.807 54,433.801 L54,436.199 C54,437.194 53.194,438 52.2,438 L40.199,438 L40.199,438 L37.801,438 L37.801,438 L37.8,438 C36.878,437.814 37.268,438.027 36.621,437.379 C35.973,436.732 36.186,437.122 36,436.2 L36,403.8 C36.186,402.878 35.973,403.268 36.621,402.621 C37.268,401.973 36.878,402.186 37.8,402 L52.2,402 z"
           fill="#00A8AA"
           id="path472" />
        <path
           d="M76.113,411.848 C77.111,412.424 76.871,412.022 77.098,412.85 L77.098,416.958 L83,416.958 C83.552,416.958 84,417.406 84,417.958 L84,422.039 C84,422.592 83.552,423.039 83,423.039 L77.098,423.039 L77.098,427.15 C77.098,427.92 76.264,428.401 75.598,428.016 L63.213,420.866 C62.546,420.481 62.546,419.519 63.213,419.134 L75.598,411.983 L76.113,411.848 z"
           fill="#00A8AA"
           id="path474" />
      </g>
    </g>
    <g
       id="g488"
       inkscape:label="next_match">
      <path
         d="M120,360 L240,360 L240,480 L120,480 L120,360 z"
         fill="url(#Gradient_18)"
         id="path480" />
      <g
         id="g486">
        <path
           d="M187.8,438 C186.806,438 186,437.193 186,436.199 L186,433.801 C186,432.806 186.806,432 187.8,432 L198,432 L198,408 L187.8,408 C186.806,408 186,407.193 186,406.199 L186,403.801 C186,402.806 186.806,402 187.8,402 L199.801,402 L199.801,402 L202.199,402 L202.199,402 L202.2,402 C203.122,402.186 202.732,401.973 203.379,402.621 C204.027,403.268 203.814,402.878 204,403.8 L204,436.2 C203.814,437.122 204.027,436.732 203.379,437.379 C202.732,438.027 203.122,437.814 202.2,438 L187.8,438 z"
           fill="#00A8AA"
           id="path482" />
        <path
           d="M163.887,428.152 C162.889,427.576 163.129,427.978 162.902,427.15 L162.902,423.042 L157,423.042 C156.448,423.042 156,422.594 156,422.042 L156,417.961 C156,417.408 156.448,416.961 157,416.961 L162.902,416.961 L162.902,412.85 C162.902,412.08 163.736,411.599 164.402,411.984 L176.787,419.134 C177.454,419.519 177.454,420.481 176.787,420.866 L164.402,428.017 L163.887,428.152 z"
           fill="#00A8AA"
           id="path484" />
      </g>
    </g>
    <g
       id="g502"
       inkscape:label="extend_out">
      <path
         d="M240,360 L360,360 L360,480 L240,480 L240,360 z"
         fill="url(#Gradient_19)"
         id="path490" />
      <g
         id="g500">
        <path
           d="M329.735,402 C330.729,402 331.535,402.806 331.535,403.801 L331.535,406.199 C331.535,407.193 330.729,408 329.735,408 L325.532,408 L325.532,432 L329.735,432 C330.729,432 331.535,432.806 331.535,433.801 L331.535,436.199 C331.535,437.193 330.729,438 329.735,438 L315.329,438 C314.334,438 313.529,437.193 313.529,436.199 L313.529,433.801 C313.529,432.806 314.334,432 315.329,432 L319.532,432 L319.532,408 L315.329,408 C314.334,408 313.529,407.193 313.529,406.199 L313.529,403.801 C313.529,402.806 314.334,402 315.329,402 L329.735,402 z"
           fill="#FF9937"
           id="path492" />
        <path
           d="M298.358,428.163 C297.36,427.587 297.6,427.989 297.373,427.161 L297.373,423.053 L291.471,423.053 C290.919,423.053 290.471,422.605 290.471,422.053 L290.471,417.972 C290.471,417.419 290.919,416.972 291.471,416.972 L297.373,416.972 L297.373,412.861 C297.373,412.091 298.207,411.61 298.873,411.995 L311.258,419.145 C311.925,419.53 311.925,420.492 311.258,420.877 L298.873,428.028 L298.358,428.163 z"
           fill="#FF9937"
           id="path494" />
        <path
           d="M270.271,438 C269.277,438 268.471,437.193 268.471,436.199 L268.471,433.801 C268.471,432.806 269.277,432 270.271,432 L280.471,432 L280.471,408 L270.271,408 C269.277,408 268.471,407.193 268.471,406.199 L268.471,403.801 C268.471,402.806 269.277,402 270.271,402 L282.272,402 L282.273,402 L284.67,402 L284.671,402 L284.671,402 C285.593,402.186 285.204,401.973 285.851,402.621 C286.498,403.268 286.285,402.878 286.471,403.8 L286.471,436.2 C286.285,437.122 286.498,436.732 285.851,437.379 C285.204,438.027 285.593,437.814 284.671,438 L270.271,438 z"
           fill="#FF9937"
           id="path496" />
        <path
           d="M268.465,433.922 L268.465,406.1 L280.096,406.1 C281.201,406.1 282.096,406.988 282.096,408.084 L282.096,431.938 C282.096,433.034 281.201,433.922 280.096,433.922 L268.465,433.922 z"
           fill="#AB5500"
           id="path498" />
      </g>
    </g>
    <g
       id="g516"
       inkscape:label="extend_in">
      <path
         d="M360,360 L480,360 L480,480 L360,480 L360,360 z"
         fill="url(#Gradient_20)"
         id="path504" />
      <g
         id="g514">
        <path
           d="M449.728,401.994 C450.723,401.995 451.528,402.801 451.528,403.796 L451.528,406.193 C451.528,407.188 450.723,407.995 449.728,407.994 L439.528,407.994 L439.528,431.994 L449.728,431.994 C450.723,431.995 451.528,432.801 451.528,433.796 L451.528,436.193 C451.528,437.188 450.723,437.995 449.728,437.994 L437.727,437.994 L437.727,437.994 L435.33,437.994 L435.329,437.994 L435.328,437.994 C434.406,437.808 434.796,438.021 434.149,437.374 C433.501,436.727 433.715,437.116 433.528,436.194 L433.528,403.794 C433.715,402.872 433.501,403.262 434.149,402.615 C434.796,401.967 434.406,402.181 435.328,401.994 L449.728,401.994 z"
           fill="#FF9937"
           id="path506" />
        <path
           d="M451.535,406.073 L451.535,433.894 L439.903,433.894 C438.799,433.894 437.903,433.006 437.903,431.911 L437.903,408.056 C437.903,406.961 438.799,406.073 439.903,406.073 L451.535,406.073 z"
           fill="#AB5500"
           id="path508" />
        <path
           d="M404.672,402.006 C405.666,402.005 406.472,402.812 406.472,403.807 L406.472,406.204 C406.472,407.199 405.666,408.005 404.672,408.005 L400.468,408.006 L400.468,432.006 L404.672,432.006 C405.666,432.005 406.472,432.812 406.472,433.807 L406.472,436.204 C406.472,437.199 405.666,438.005 404.672,438.005 L390.265,438.006 C389.271,438.005 388.465,437.199 388.465,436.204 L388.465,433.807 C388.465,432.812 389.271,432.005 390.265,432.005 L394.468,432.006 L394.468,408.006 L390.265,408.006 C389.271,408.005 388.465,407.199 388.465,406.204 L388.465,403.807 C388.465,402.812 389.271,402.005 390.265,402.005 L404.672,402.006 z"
           fill="#FF9937"
           id="path510" />
        <path
           d="M422.764,411.843 C423.761,412.419 423.522,412.017 423.748,412.844 L423.748,416.953 L429.65,416.953 C430.203,416.953 430.65,417.4 430.65,417.953 L430.65,422.034 C430.65,422.586 430.203,423.034 429.65,423.034 L423.748,423.034 L423.748,427.145 C423.748,427.915 422.915,428.396 422.248,428.011 L409.863,420.86 C409.197,420.476 409.197,419.513 409.863,419.128 L422.248,411.978 L422.764,411.843 z"
           fill="#FF9937"
           id="path512" />
      </g>
    </g>
    <g
       id="g530"
       inkscape:label="fill_out">
      <path
         d="M240,480 L360,480 L360,600 L240,600 L240,480 z"
         fill="url(#Gradient_21)"
         id="path518" />
      <g
         id="g528">
        <path
           d="M329.732,522 C330.726,522 331.532,522.807 331.532,523.801 L331.532,526.199 C331.532,527.194 330.726,528 329.732,528 L319.532,528 L319.532,552 L329.732,552 C330.726,552 331.532,552.807 331.532,553.801 L331.532,556.199 C331.532,557.194 330.726,558 329.732,558 L317.731,558 L317.73,558 L315.333,558 L315.332,558 L315.332,558 C314.41,557.814 314.799,558.027 314.152,557.379 C313.505,556.732 313.718,557.122 313.532,556.2 L313.532,523.8 C313.718,522.878 313.505,523.268 314.152,522.621 C314.799,521.973 314.41,522.186 315.332,522 L329.732,522 z"
           fill="#FF9937"
           id="path520" />
        <path
           d="M298.361,548.163 C297.364,547.587 297.603,547.989 297.377,547.161 L297.377,543.053 L291.474,543.053 C290.922,543.053 290.474,542.605 290.474,542.053 L290.474,537.972 C290.474,537.419 290.922,536.972 291.474,536.972 L297.377,536.972 L297.377,532.861 C297.377,532.091 298.21,531.61 298.877,531.995 L311.261,539.145 C311.928,539.53 311.928,540.492 311.262,540.877 L298.877,548.028 L298.361,548.163 z"
           fill="#FF9937"
           id="path522" />
        <path
           d="M270.275,558 C269.281,558 268.475,557.193 268.475,556.199 L268.475,553.801 C268.475,552.806 269.281,552 270.275,552 L280.475,552 L280.475,528 L270.275,528 C269.281,528 268.475,527.193 268.475,526.199 L268.475,523.801 C268.475,522.806 269.281,522 270.275,522 L282.276,522 L282.276,522 L284.674,522 L284.674,522 L284.675,522 C285.597,522.186 285.207,521.973 285.854,522.621 C286.502,523.268 286.289,522.878 286.475,523.8 L286.475,556.2 C286.289,557.122 286.502,556.732 285.854,557.379 C285.207,558.027 285.597,557.814 284.675,558 L270.275,558 z"
           fill="#FF9937"
           id="path524" />
        <path
           d="M268.468,553.922 L268.468,526.1 L280.1,526.1 C281.204,526.1 282.1,526.988 282.1,528.084 L282.1,551.938 C282.1,553.034 281.204,553.922 280.1,553.922 L268.468,553.922 z"
           fill="#AB5500"
           id="path526" />
      </g>
    </g>
    <g
       id="g544"
       inkscape:label="fill_in">
      <path
         d="M360,480 L480,480 L480,600 L360,600 L360,480 z"
         fill="url(#Gradient_22)"
         id="path532" />
      <g
         id="g542">
        <path
           d="M390.268,558 C389.274,558 388.468,557.193 388.468,556.199 L388.468,553.801 C388.468,552.806 389.274,552 390.268,552 L400.468,552 L400.468,528 L390.268,528 C389.274,528 388.468,527.193 388.468,526.199 L388.468,523.801 C388.468,522.806 389.274,522 390.268,522 L402.269,522 L402.27,522 L404.667,522 L404.668,522 L404.668,522 C405.59,522.186 405.201,521.973 405.848,522.621 C406.495,523.268 406.282,522.878 406.468,523.8 L406.468,556.2 C406.282,557.122 406.495,556.732 405.848,557.379 C405.201,558.027 405.59,557.814 404.668,558 L390.268,558 z"
           fill="#FF9937"
           id="path534" />
        <path
           d="M449.725,522 C450.719,522 451.525,522.807 451.525,523.801 L451.525,526.199 C451.525,527.194 450.719,528 449.725,528 L439.525,528 L439.525,552 L449.725,552 C450.719,552 451.525,552.807 451.525,553.801 L451.525,556.199 C451.525,557.194 450.719,558 449.725,558 L437.724,558 L437.724,558 L435.327,558 L435.326,558 L435.325,558 C434.403,557.814 434.793,558.027 434.146,557.379 C433.498,556.732 433.711,557.122 433.525,556.2 L433.525,523.8 C433.711,522.878 433.498,523.268 434.146,522.621 C434.793,521.973 434.403,522.186 435.325,522 L449.725,522 z"
           fill="#FF9937"
           id="path536" />
        <path
           d="M451.532,526.078 L451.532,553.9 L439.9,553.9 C438.796,553.9 437.9,553.012 437.9,551.916 L437.9,528.062 C437.9,526.966 438.796,526.078 439.9,526.078 L451.532,526.078 z"
           fill="#AB5500"
           id="path538" />
        <path
           d="M423.868,531.848 C424.866,532.424 424.626,532.022 424.853,532.85 L424.853,536.958 L430.755,536.958 C431.307,536.958 431.755,537.406 431.755,537.958 L431.755,542.039 C431.755,542.592 431.307,543.039 430.755,543.039 L424.853,543.039 L424.853,547.15 C424.853,547.92 424.019,548.401 423.353,548.016 L410.968,540.866 C410.301,540.481 410.301,539.519 410.968,539.134 L423.353,531.983 L423.868,531.848 z"
           fill="#FF9937"
           id="path540" />
      </g>
    </g>
    <g
       id="g1253"
       inkscape:label="add_match">
      <path
         d="M0,600 L120,600 L120,720 L0,720 L0,600 z"
         fill="url(#Gradient_23)"
         id="path546" />
      <path
         d="m 36.5,636.5 h 48 v 48 h -48 z"
         fill="#155400"
         id="path548" />
      <path
         d="m 36.5,636.5 h 48 v 48 h -48 z"
         fill-opacity="0"
         stroke="#3fca00"
         stroke-width="6"
         stroke-linecap="round"
         stroke-linejoin="round"
         id="path550" />
      <path
         d="M74.863,657.865 L74.863,662.135 L62.135,662.135 L62.135,674.863 L57.865,674.863 L57.865,662.135 L45.137,662.135 L45.137,657.865 L57.865,657.865 L57.865,645.137 L62.135,645.137 L62.135,657.865 z"
         fill="#93FA67"
         id="path554" />
    </g>
    <g
       id="g566">
      <path
         d="M120,600 L240,600 L240,720 L120,720 L120,600 z"
         fill="url(#Gradient_24)"
         id="path556" />
      <g
         id="g562">
        <path
           d="M156.5,636.5 L204.5,636.5 L204.5,684.5 L156.5,684.5 L156.5,636.5 z"
           fill="#155400"
           id="path558" />
        <path
           d="M156.5,636.5 L204.5,636.5 L204.5,684.5 L156.5,684.5 L156.5,636.5 z"
           fill-opacity="0"
           stroke="#3FCA00"
           stroke-width="6"
           stroke-linecap="round"
           stroke-linejoin="round"
           id="path560" />
      </g>
      <path
         d="M194.863,653.102 L194.863,657.345 L165.137,657.345 L165.137,653.102 z M194.863,662.655 L194.863,666.898 L165.137,666.898 L165.137,662.655 z"
         fill="#93FA67"
         id="path564" />
    </g>
    <g
       id="g578">
      <path
         d="M240,600 L360,600 L360,720 L240,720 L240,600 z"
         fill="url(#Gradient_25)"
         id="path568" />
      <g
         id="g574">
        <path
           d="M276.5,636.5 L324.5,636.5 L324.5,684.5 L276.5,684.5 L276.5,636.5 z"
           fill="#155400"
           id="path570" />
        <path
           d="M276.5,636.5 L324.5,636.5 L324.5,684.5 L276.5,684.5 L276.5,636.5 z"
           fill-opacity="0"
           stroke="#3FCA00"
           stroke-width="6"
           stroke-linecap="round"
           stroke-linejoin="round"
           id="path572" />
      </g>
      <path
         d="M284.09,660 L300,644.09 L315.91,660 L300,675.91 L284.09,660 z"
         fill="#F2D300"
         id="path576" />
    </g>
    <g
       id="g592"
       inkscape:label="match_frame">
      <path
         d="M360,600 L480,600 L480,720 L360,720 L360,600 z"
         fill="url(#Gradient_26)"
         id="path580" />
      <g
         id="g590">
        <path
           d="M390.268,678 C389.274,678 388.468,677.194 388.468,676.199 L388.468,673.801 C388.468,672.807 389.274,672 390.268,672 L394.472,672 L394.472,648 L390.268,648 C389.274,648 388.468,647.194 388.468,646.199 L388.468,643.801 C388.468,642.807 389.274,642 390.268,642 L404.675,642 C405.669,642 406.475,642.807 406.475,643.801 L406.475,646.199 C406.475,647.194 405.669,648 404.675,648 L400.472,648 L400.472,672 L404.675,672 C405.669,672 406.475,672.807 406.475,673.801 L406.475,676.199 C406.475,677.194 405.669,678 404.675,678 L390.268,678 z"
           fill="#3FCA00"
           id="path582" />
        <path
           d="M435.325,678 C434.331,678 433.525,677.194 433.525,676.199 L433.525,673.801 C433.525,672.807 434.331,672 435.325,672 L439.528,672 L439.528,648 L435.325,648 C434.331,648 433.525,647.194 433.525,646.199 L433.525,643.801 C433.525,642.807 434.331,642 435.325,642 L449.732,642 C450.726,642 451.532,642.807 451.532,643.801 L451.532,646.199 C451.532,647.194 450.726,648 449.732,648 L445.528,648 L445.528,672 L449.732,672 C450.726,672 451.532,672.807 451.532,673.801 L451.532,676.199 C451.532,677.194 450.726,678 449.732,678 L435.325,678 z"
           fill="#3FCA00"
           id="path584" />
        <path
           d="M417.096,656.5 C420.479,656.5 423.221,658.291 423.221,660.5 C423.221,662.709 420.479,664.5 417.096,664.5 C413.713,664.5 410.971,662.709 410.971,660.5 C410.971,658.291 413.713,656.5 417.096,656.5 z"
           fill-opacity="0"
           stroke="#3FCA00"
           stroke-width="2"
           id="path586" />
        <path
           d="M423.596,656.5 C426.979,656.5 429.721,658.291 429.721,660.5 C429.721,662.709 426.979,664.5 423.596,664.5 C420.213,664.5 417.471,662.709 417.471,660.5 C417.471,658.291 420.213,656.5 423.596,656.5 z"
           fill-opacity="0"
           stroke="#3FCA00"
           stroke-width="2"
           id="path588" />
      </g>
    </g>
    <g
       id="g604"
       inkscape:label="match_heal">
      <path
         d="M480,600 L600,600 L600,720 L480,720 L480,600 z"
         fill="url(#Gradient_27)"
         id="path594" />
      <g
         id="g600">
        <path
           d="m 501.833,636.5 h 77.334 v 48 h -77.334 z"
           fill="#155400"
           id="path596"
           style="display:inline" />
        <path
           d="M501.833,636.5 L579.167,636.5 L579.167,684.5 L501.833,684.5 L501.833,636.5 z"
           fill-opacity="0"
           stroke="#3FCA00"
           stroke-width="4"
           stroke-dasharray="12,8"
           stroke-linecap="round"
           stroke-linejoin="round"
           id="path598"
           inkscape:label="path598" />
      </g>
      <path
         d="M524.09,660 L540,644.09 L555.91,660 L540,675.91 L524.09,660 z"
         fill="#00CB83"
         id="path602" />
    </g>
    <g
       id="g620"
       inkscape:label="match_disable">
      <path
         d="M 600,600 H 720 V 720 H 600 Z"
         fill="url(#Gradient_28)"
         id="path606"
         style="fill:url(#Gradient_28)" />
      <path
         d="m 621.833,636.5 h 77.334 v 48 h -77.334 z"
         fill="#155400"
         id="path608" />
      <path
         d="m 621.833,636.5 h 77.334 v 48 h -77.334 z"
         fill-opacity="0"
         stroke="#3fca00"
         stroke-width="4"
         stroke-dasharray="12, 8"
         stroke-linecap="round"
         stroke-linejoin="round"
         id="path610" />
      <path
         d="M647.991,644.5 L673.009,676.5"
         fill-opacity="0"
         stroke="#3FCA00"
         stroke-width="6"
         stroke-linecap="round"
         id="path616" />
      <path
         d="M647.991,676.5 L673.009,644.5"
         fill-opacity="0"
         stroke="#3FCA00"
         stroke-width="6"
         stroke-linecap="round"
         id="path618" />
    </g>
    <g
       id="g638"
       inkscape:label="zoom_in"
       style="display:inline">
      <path
         d="m -0.783,720 h 120 v 120 h -120 z"
         fill="url(#Gradient_29)"
         id="path622" />
      <g
         id="g628">
        <path
           d="m 49.402,777.526 c -6.493,0 -11.756,-5.263 -11.756,-11.756 0,-6.493 5.263,-11.757 11.756,-11.757 6.493,0 11.757,5.264 11.757,11.757 0,6.493 -5.264,11.756 -11.757,11.756 z"
           fill="#155400"
           id="path624" />
        <path
           d="m 49.402,752.107 c 7.546,0 13.663,6.117 13.663,13.663 0,7.546 -6.117,13.663 -13.663,13.663 -7.546,0 -13.663,-6.117 -13.663,-13.663 0,-7.546 6.117,-13.663 13.663,-13.663 z m 0,3.813 c -5.44,0 -9.85,4.41 -9.85,9.85 0,5.44 4.41,9.85 9.85,9.85 5.44,0 9.85,-4.41 9.85,-9.85 0,-5.44 -4.41,-9.85 -9.85,-9.85 z"
           fill="#3fca00"
           id="path626" />
      </g>
      <path
         d="m 62.654,776.342 21.607,27.326 -2.991,2.365 -21.607,-27.326 z"
         fill="#3fca00"
         id="path630" />
      <path
         d="M 60.25,778.618 81.644,805.52 78.66,807.893 57.265,780.991 Z"
         fill="#3fca00"
         id="path632" />
      <path
         d="m 58.79,774.41 3.884,5.084 -3.03,2.315 -3.884,-5.084 z"
         fill="#3fca00"
         id="path634" />
      <path
         d="m 51.093,797.865 v 4.27 H 38.365 v 12.728 h -4.27 V 802.135 H 21.366 v -4.27 h 12.729 v -12.728 h 4.27 v 12.728 z"
         fill="#93fa67"
         id="path636" />
    </g>
    <g
       id="g656"
       inkscape:label="zoom_out">
      <path
         d="M120,720 L240,720 L240,840 L120,840 L120,720 z"
         fill="url(#Gradient_30)"
         id="path640" />
      <g
         id="g646">
        <path
           d="M169.402,777.528 C162.909,777.528 157.646,772.264 157.646,765.771 C157.646,759.278 162.909,754.015 169.402,754.015 C175.895,754.015 181.159,759.278 181.159,765.771 C181.159,772.264 175.895,777.528 169.402,777.528 z"
           fill="#155400"
           id="path642" />
        <path
           d="M169.402,752.108 C176.948,752.108 183.065,758.225 183.065,765.771 C183.065,773.317 176.948,779.434 169.402,779.434 C161.856,779.434 155.739,773.317 155.739,765.771 C155.739,758.225 161.856,752.108 169.402,752.108 z M169.402,755.921 C163.962,755.921 159.552,760.331 159.552,765.771 C159.552,771.211 163.962,775.621 169.402,775.621 C174.842,775.621 179.252,771.211 179.252,765.771 C179.252,760.331 174.842,755.921 169.402,755.921 z"
           fill="#3FCA00"
           id="path644" />
      </g>
      <path
         d="M182.654,776.342 L204.261,803.668 L201.27,806.033 L179.663,778.707 L182.654,776.342 z"
         fill="#3FCA00"
         id="path648" />
      <path
         d="M180.25,778.618 L201.644,805.52 L198.66,807.893 L177.265,780.991 L180.25,778.618 z"
         fill="#3FCA00"
         id="path650" />
      <path
         d="M178.79,774.41 L182.674,779.494 L179.644,781.809 L175.76,776.725 L178.79,774.41 z"
         fill="#3FCA00"
         id="path652" />
      <path
         d="M173.486,797.865 L173.486,802.135 L143.76,802.135 L143.76,797.865 z"
         fill="#93FA67"
         id="path654" />
    </g>
    <g
       id="g668"
       inkscape:label="playhead_follow">
      <path
         d="M240,720 L360,720 L360,840 L240,840 L240,720 z"
         fill="url(#Gradient_31)"
         id="path658" />
      <path
         d="M258,760 L312,760 L312,777 L258,777 L258,760 z"
         fill="#3FCA00"
         id="path660" />
      <path
         d="M288,783 L342,783 L342,800 L288,800 L288,783 z"
         fill="#3FCA00"
         id="path662" />
      <path
         d="M300.279,805.28 L300.279,754.947"
         fill-opacity="0"
         stroke="#3FCA00"
         stroke-width="3"
         id="path664" />
      <path
         d="M305.637,739.515 L300,749.279 L294.363,739.515 z"
         fill="#3FCA00"
         id="path666" />
    </g>
    <g
       id="g678"
       inkscape:label="scroll_master">
      <path
         d="M120,840 L240,840 L240,960 L120,960 L120,840 z"
         fill="url(#Gradient_32)"
         id="path670" />
      <g
         id="g676">
        <path
           d="M166,866.526 L176.587,898.319 L170.957,898.319 L170.957,934.474 L161.043,934.474 L161.043,898.319 L155.413,898.319 L166,866.526 z"
           fill-opacity="0"
           stroke="#FFFFFF"
           stroke-width="2"
           id="path672" />
        <path
           d="M195,934.474 L184.413,902.681 L190.043,902.681 L190.043,866.526 L199.957,866.526 L199.957,902.681 L205.587,902.681 L195,934.474 z"
           fill-opacity="0"
           stroke="#FFFFFF"
           stroke-width="2"
           id="path674" />
      </g>
    </g>
    <g
       id="g686"
       inkscape:label="scroll_link">
      <path
         d="M240,840 L360,840 L360,960 L240,960 L240,840 z"
         fill="url(#Gradient_33)"
         id="path680" />
      <path
         d="M300.5,908.683 C293.32,908.683 287.5,900.625 287.5,890.683 C287.5,880.742 293.32,872.683 300.5,872.683 C307.68,872.683 313.5,880.742 313.5,890.683 C313.5,900.625 307.68,908.683 300.5,908.683 z"
         fill-opacity="0"
         stroke="#D11D00"
         stroke-width="5"
         id="path682" />
      <path
         d="M300.5,928.317 C293.32,928.317 287.5,920.258 287.5,910.317 C287.5,900.375 293.32,892.317 300.5,892.317 C307.68,892.317 313.5,900.375 313.5,910.317 C313.5,920.258 307.68,928.317 300.5,928.317 z"
         fill-opacity="0"
         stroke="#D11D00"
         stroke-width="5"
         id="path684" />
    </g>
  </g>
</svg>
