<?xml version="1.0" encoding="UTF-8" standalone="no"?>
<svg
   version="1.1"
   x="0"
   y="0"
   width="48.007"
   height="36.000999"
   viewBox="0 0 48.007 36.000999"
   id="svg385"
   sodipodi:docname="transport_icons.svg.2022_08_18_11_32_28.0.svg"
   inkscape:version="1.2.1 (9c6d41e4, 2022-07-14)"
   xmlns:inkscape="http://www.inkscape.org/namespaces/inkscape"
   xmlns:sodipodi="http://sodipodi.sourceforge.net/DTD/sodipodi-0.dtd"
   xmlns="http://www.w3.org/2000/svg"
   xmlns:svg="http://www.w3.org/2000/svg">
  <defs
     id="defs389" />
  <sodipodi:namedview
     id="namedview387"
     pagecolor="#ffffff"
     bordercolor="#000000"
     borderopacity="0.25"
     inkscape:showpageshadow="2"
     inkscape:pageopacity="0.0"
     inkscape:pagecheckerboard="0"
     inkscape:deskcolor="#d1d1d1"
     showgrid="true"
     inkscape:zoom="0.85644533"
     inkscape:cx="218.92816"
     inkscape:cy="489.81527"
     inkscape:window-width="1706"
     inkscape:window-height="1027"
     inkscape:window-x="45"
     inkscape:window-y="57"
     inkscape:window-maximized="0"
     inkscape:current-layer="Layer_1">
    <inkscape:grid
       type="xygrid"
       id="grid445"
       units="in"
       spacingx="12"
       spacingy="12" />
  </sodipodi:namedview>
  <g
     id="Layer_1"
     transform="translate(-360,-576.01)">
    <g
       id="g240"
       inkscape:label="arrowheadright_beam">
      <path
         d="m 391.534,594.502 c -0.577,1.035 -0.225,0.672 -0.917,1.209 l -27.681,16.034 C 361.631,612.5 360,611.556 360,610.044 v -32.067 c 0,-1.511 1.631,-2.456 2.936,-1.701 l 27.681,16.034 c 0.977,0.659 0.917,1.127 0.917,2.192 z"
         fill="#000000"
         id="path236" />
      <path
         d="m 406.207,576.011 c 0.994,-10e-4 1.8,0.806 1.8,1.801 v 2.397 c 0,0.995 -0.806,1.801 -1.8,1.801 l -4.204,10e-4 v 24 h 4.204 c 0.994,-10e-4 1.8,0.806 1.8,1.801 v 2.397 c 0,0.995 -0.806,1.801 -1.8,1.801 l -14.407,10e-4 c -0.994,-10e-4 -1.8,-0.807 -1.8,-1.802 v -2.397 c 0,-0.995 0.806,-1.802 1.8,-1.802 l 4.203,10e-4 v -24 H 391.8 c -0.994,-10e-4 -1.8,-0.807 -1.8,-1.802 v -2.397 c 0,-0.995 0.806,-1.802 1.8,-1.802 z"
         fill="#000000"
         id="path238" />
    </g>
  </g>
</svg>
