<?xml version="1.0" encoding="UTF-8" standalone="no"?>
<svg
   version="1.1"
   x="0"
   y="0"
   width="63.063999"
   height="36"
   viewBox="0 0 63.063999 36"
   id="svg385"
   sodipodi:docname="transport_icons.svg.2022_08_18_11_32_28.0.svg"
   inkscape:version="1.2.1 (9c6d41e4, 2022-07-14)"
   xmlns:inkscape="http://www.inkscape.org/namespaces/inkscape"
   xmlns:sodipodi="http://sodipodi.sourceforge.net/DTD/sodipodi-0.dtd"
   xmlns="http://www.w3.org/2000/svg"
   xmlns:svg="http://www.w3.org/2000/svg">
  <defs
     id="defs389" />
  <sodipodi:namedview
     id="namedview387"
     pagecolor="#ffffff"
     bordercolor="#000000"
     borderopacity="0.25"
     inkscape:showpageshadow="2"
     inkscape:pageopacity="0.0"
     inkscape:pagecheckerboard="0"
     inkscape:deskcolor="#d1d1d1"
     showgrid="true"
     inkscape:zoom="0.85644533"
     inkscape:cx="218.92816"
     inkscape:cy="489.81527"
     inkscape:window-width="1706"
     inkscape:window-height="1027"
     inkscape:window-x="45"
     inkscape:window-y="57"
     inkscape:window-maximized="0"
     inkscape:current-layer="Layer_1">
    <inkscape:grid
       type="xygrid"
       id="grid445"
       units="in"
       spacingx="12"
       spacingy="12" />
  </sodipodi:namedview>
  <g
     id="Layer_1"
     transform="translate(-576.006,-288.011)">
    <g
       id="g196"
       inkscape:label="beam_chain_beam">
      <path
         d="m 577.806,324.011 c -0.994,0 -1.8,-0.806 -1.8,-1.801 v -2.398 c 0,-0.994 0.806,-1.801 1.801,-1.801 h 4.203 v -24 h -4.204 c -0.994,0 -1.8,-0.806 -1.8,-1.801 v -2.398 c 0,-0.994 0.806,-1.801 1.801,-1.801 h 14.406 c 0.994,0 1.8,0.807 1.8,1.801 v 2.398 c 0,0.995 -0.806,1.801 -1.8,1.801 h -4.203 v 24 h 4.203 c 0.994,0 1.8,0.807 1.8,1.801 v 2.398 c 0,0.995 -0.806,1.801 -1.8,1.801 z"
         fill="#000000"
         id="path188" />
      <path
         d="m 622.863,324.011 c -0.994,0 -1.8,-0.806 -1.8,-1.801 v -2.398 c 0,-0.994 0.806,-1.801 1.8,-1.801 h 4.204 v -24 h -4.204 c -0.994,0 -1.8,-0.806 -1.8,-1.801 v -2.398 c 0,-0.994 0.806,-1.801 1.8,-1.801 h 14.407 c 0.994,0 1.8,0.807 1.8,1.801 v 2.398 c 0,0.995 -0.806,1.801 -1.8,1.801 h -4.203 v 24 h 4.203 c 0.994,0 1.8,0.807 1.8,1.801 v 2.398 c 0,0.995 -0.806,1.801 -1.8,1.801 z"
         fill="#000000"
         id="path190" />
      <path
         d="m 604.634,302.511 c 3.383,0 6.125,1.791 6.125,4 0,2.209 -2.742,4 -6.125,4 -3.382,0 -6.125,-1.791 -6.125,-4 0,-2.209 2.743,-4 6.125,-4 z"
         fill-opacity="0"
         stroke="#000000"
         stroke-width="2"
         id="path192" />
      <path
         d="m 611.134,302.511 c 3.383,0 6.125,1.791 6.125,4 0,2.209 -2.742,4 -6.125,4 -3.382,0 -6.125,-1.791 -6.125,-4 0,-2.209 2.743,-4 6.125,-4 z"
         fill-opacity="0"
         stroke="#000000"
         stroke-width="2"
         id="path194" />
    </g>
  </g>
</svg>
