<?xml version="1.0" encoding="UTF-8" standalone="no"?>
<svg
   version="1.1"
   x="0"
   y="0"
   width="18.006001"
   height="36"
   viewBox="0 0 18.006001 36"
   id="svg385"
   sodipodi:docname="transport_icons.svg.2022_08_18_11_32_28.0.svg"
   inkscape:version="1.2.1 (9c6d41e4, 2022-07-14)"
   xmlns:inkscape="http://www.inkscape.org/namespaces/inkscape"
   xmlns:sodipodi="http://sodipodi.sourceforge.net/DTD/sodipodi-0.dtd"
   xmlns="http://www.w3.org/2000/svg"
   xmlns:svg="http://www.w3.org/2000/svg">
  <defs
     id="defs389" />
  <sodipodi:namedview
     id="namedview387"
     pagecolor="#ffffff"
     bordercolor="#000000"
     borderopacity="0.25"
     inkscape:showpageshadow="2"
     inkscape:pageopacity="0.0"
     inkscape:pagecheckerboard="0"
     inkscape:deskcolor="#d1d1d1"
     showgrid="true"
     inkscape:zoom="0.85644533"
     inkscape:cx="218.92816"
     inkscape:cy="489.81527"
     inkscape:window-width="1706"
     inkscape:window-height="1027"
     inkscape:window-x="45"
     inkscape:window-y="57"
     inkscape:window-maximized="0"
     inkscape:current-layer="Layer_1">
    <inkscape:grid
       type="xygrid"
       id="grid445"
       units="in"
       spacingx="12"
       spacingy="12" />
  </sodipodi:namedview>
  <g
     id="Layer_1"
     transform="translate(-144.072,-432.011)">
    <g
       id="g711"
       inkscape:label="brfl">
      <path
         d="m 145.878,468.011 c -0.994,0 -1.8,-0.807 -1.8,-1.801 l 0.001,-2.398 c -0.001,-0.995 0.805,-1.801 1.799,-1.801 h 10.2 v -24 h -10.2 c -0.994,0 -1.8,-0.807 -1.8,-1.801 l 0.001,-2.398 c -0.001,-0.995 0.805,-1.801 1.799,-1.801 h 12.001 0.001 2.397 0.001 v 0 c 0.922,0.186 0.533,-0.027 1.18,0.621 0.647,0.647 0.434,0.257 0.62,1.179 v 32.4 c -0.186,0.922 0.027,0.532 -0.62,1.179 -0.647,0.648 -0.258,0.435 -1.18,0.621 z"
         fill="#000000"
         id="path302" />
      <path
         d="m 144.072,463.933 v -27.822 h 11.631 c 1.105,0 2,0.888 2,1.984 v 23.854 c 0,1.096 -0.895,1.984 -2,1.984 z"
         fill="#686868"
         id="path304" />
    </g>
  </g>
</svg>
