<?xml version="1.0" encoding="UTF-8" standalone="no"?>
<svg
   version="1.1"
   x="0"
   y="0"
   width="18"
   height="36"
   viewBox="0 0 18 36"
   id="svg385"
   sodipodi:docname="transport_icons.svg.2022_08_18_11_32_28.0.svg"
   inkscape:version="1.2.1 (9c6d41e4, 2022-07-14)"
   xmlns:inkscape="http://www.inkscape.org/namespaces/inkscape"
   xmlns:sodipodi="http://sodipodi.sourceforge.net/DTD/sodipodi-0.dtd"
   xmlns="http://www.w3.org/2000/svg"
   xmlns:svg="http://www.w3.org/2000/svg">
  <defs
     id="defs389" />
  <sodipodi:namedview
     id="namedview387"
     pagecolor="#ffffff"
     bordercolor="#000000"
     borderopacity="0.25"
     inkscape:showpageshadow="2"
     inkscape:pageopacity="0.0"
     inkscape:pagecheckerboard="0"
     inkscape:deskcolor="#d1d1d1"
     showgrid="true"
     inkscape:zoom="0.85644533"
     inkscape:cx="218.92816"
     inkscape:cy="489.81527"
     inkscape:window-width="1706"
     inkscape:window-height="1027"
     inkscape:window-x="45"
     inkscape:window-y="57"
     inkscape:window-maximized="0"
     inkscape:current-layer="Layer_1">
    <inkscape:grid
       type="xygrid"
       id="grid445"
       units="in"
       spacingx="12"
       spacingy="12" />
  </sodipodi:namedview>
  <g
     id="Layer_1"
     transform="translate(-144.075,-144.011)">
    <g
       id="g1027"
       inkscape:label="brr">
      <path
         d="m 160.275,144.011 c 0.994,0 1.8,0.807 1.8,1.801 v 2.398 c 0,0.995 -0.806,1.801 -1.8,1.801 h -10.2 v 24 h 10.2 c 0.994,0 1.8,0.807 1.8,1.801 v 2.398 c 0,0.995 -0.806,1.801 -1.8,1.801 h -12.001 v 0 h -2.398 v 0 h -0.001 c -0.922,-0.186 -0.532,0.027 -1.179,-0.621 -0.648,-0.647 -0.435,-0.257 -0.621,-1.179 v -32.4 c 0.186,-0.922 -0.027,-0.532 0.621,-1.179 0.647,-0.648 0.257,-0.435 1.179,-0.621 z"
         fill="#000000"
         id="path138" />
    </g>
  </g>
</svg>
