<?xml version="1.0" encoding="UTF-8" standalone="no"?>
<svg
   version="1.1"
   x="0"
   y="0"
   width="768"
   height="1024"
   viewBox="0, 0, 768, 1024"
   id="svg385"
   sodipodi:docname="transport_icons.svg.2022_08_18_11_32_28.0.svg"
   inkscape:version="1.2.1 (9c6d41e4, 2022-07-14)"
   xmlns:inkscape="http://www.inkscape.org/namespaces/inkscape"
   xmlns:sodipodi="http://sodipodi.sourceforge.net/DTD/sodipodi-0.dtd"
   xmlns="http://www.w3.org/2000/svg"
   xmlns:svg="http://www.w3.org/2000/svg">
  <defs
     id="defs389">
    <inkscape:perspective
       sodipodi:type="inkscape:persp3d"
       inkscape:vp_x="8.8965523 : 519.16562 : 1"
       inkscape:vp_y="0 : 1000 : 0"
       inkscape:vp_z="776.89655 : 519.16562 : 1"
       inkscape:persp3d-origin="392.89655 : 348.49895 : 1"
       id="perspective2300" />
    <inkscape:perspective
       sodipodi:type="inkscape:persp3d"
       inkscape:vp_x="0 : 512 : 1"
       inkscape:vp_y="0 : 1000 : 0"
       inkscape:vp_z="768 : 512 : 1"
       inkscape:persp3d-origin="384 : 341.33333 : 1"
       id="perspective2270" />
  </defs>
  <sodipodi:namedview
     id="namedview387"
     pagecolor="#ffffff"
     bordercolor="#000000"
     borderopacity="0.25"
     inkscape:showpageshadow="2"
     inkscape:pageopacity="0.0"
     inkscape:pagecheckerboard="0"
     inkscape:deskcolor="#d1d1d1"
     showgrid="true"
     inkscape:zoom="0.85644533"
     inkscape:cx="218.92816"
     inkscape:cy="489.81527"
     inkscape:window-width="1706"
     inkscape:window-height="1027"
     inkscape:window-x="45"
     inkscape:window-y="57"
     inkscape:window-maximized="0"
     inkscape:current-layer="Layer_1">
    <inkscape:grid
       type="xygrid"
       id="grid445"
       units="in"
       spacingx="12"
       spacingy="12" />
  </sodipodi:namedview>
  <g
     id="Layer_1">
    <g
       id="g102"
       inkscape:label="arrowhead_right_2x">
      <path
         d="M535.538,162.503 C534.96,163.537 535.313,163.174 534.62,163.712 L506.94,179.745 C505.635,180.501 504.004,179.556 504.004,178.044 L504.004,145.978 C504.004,144.466 505.635,143.521 506.94,144.277 L534.62,160.31 C535.597,160.969 535.538,161.437 535.538,162.503 z"
         fill="#000000"
         id="path98" />
      <path
         d="M567.073,162.503 C566.495,163.537 566.848,163.174 566.155,163.712 L538.475,179.745 C537.17,180.501 535.539,179.556 535.539,178.044 L535.539,145.978 C535.539,144.466 537.17,143.521 538.475,144.277 L566.155,160.31 C567.132,160.969 567.073,161.437 567.073,162.503 z"
         fill="#000000"
         id="path100" />
    </g>
    <g
       id="g108"
       inkscape:label="arrowhead_left_2x">
      <path
         d="M535.539,233.519 C536.117,232.485 535.765,232.848 536.457,232.31 L564.138,216.277 C565.443,215.521 567.074,216.466 567.073,217.978 L567.073,250.044 C567.074,251.556 565.442,252.501 564.138,251.745 L536.457,235.712 C535.48,235.053 535.539,234.585 535.539,233.519 z"
         fill="#000000"
         id="path104" />
      <path
         d="M504.004,233.519 C504.581,232.485 504.229,232.848 504.921,232.31 L532.602,216.277 C533.907,215.521 535.538,216.466 535.538,217.978 L535.538,250.044 C535.538,251.556 533.907,252.501 532.602,251.745 L504.921,235.712 C503.944,235.053 504.004,234.585 504.004,233.519 z"
         fill="#000000"
         id="path106" />
    </g>
    <g
       id="g1220"
       inkscape:label="arrowhead_down">
      <path
         d="M161.58,103.534 C160.546,102.957 160.908,103.309 160.371,102.617 L144.338,74.936 C143.582,73.631 144.527,72 146.039,72 L178.105,72 C179.617,72 180.562,73.631 179.806,74.936 L163.773,102.617 C163.114,103.594 162.646,103.534 161.58,103.534 z"
         fill="#000000"
         id="path110" />
    </g>
    <g
       id="g1217"
       inkscape:label="arrowhead_left">
      <path
         d="M216.001,89.508 C216.578,88.474 216.226,88.837 216.918,88.299 L244.599,72.266 C245.904,71.51 247.535,72.455 247.535,73.967 L247.535,106.033 C247.535,107.545 245.904,108.49 244.599,107.734 L216.918,91.701 C215.941,91.042 216.001,90.574 216.001,89.508 z"
         fill="#000000"
         id="path112" />
    </g>
    <g
       id="g1214"
       inkscape:label="arrl">
      <path
         d="M517.4,72 C518.398,72.576 518.158,72.174 518.385,73.001 L518.385,77.11 L524.287,77.11 C524.839,77.11 525.287,77.558 525.287,78.11 L525.287,82.191 C525.287,82.743 524.839,83.191 524.287,83.191 L518.385,83.191 L518.385,87.302 C518.385,88.072 517.551,88.553 516.885,88.168 L504.5,81.018 C503.833,80.633 503.833,79.671 504.5,79.286 L516.885,72.135 L517.4,72 z"
         fill="#000000"
         id="path114" />
    </g>
    <g
       id="g1208"
       inkscape:label="hvybar">
      <path
         d="M370.199,72 C371.194,72 372,72.806 372,73.8 L372,106.2 C372,107.194 371.194,108 370.199,108 L361.801,108 C360.807,108 360,107.194 360,106.2 L360,73.8 C360,72.806 360.807,72 361.801,72 L370.199,72 z"
         fill="#000000"
         id="path118" />
    </g>
    <g
       id="g124"
       inkscape:label="hvybar_hvybar">
      <path
         d="M226.199,216 C227.194,216 228,216.806 228,217.8 L228,250.2 C228,251.194 227.194,252 226.199,252 L217.801,252 C216.807,252 216,251.194 216,250.2 L216,217.8 C216,216.806 216.807,216 217.801,216 L226.199,216 z"
         fill="#000000"
         id="path120" />
      <path
         d="M242.199,216 C243.194,216 244,216.806 244,217.8 L244,250.2 C244,251.194 243.194,252 242.199,252 L233.801,252 C232.807,252 232,251.194 232,250.2 L232,217.8 C232,216.806 232.807,216 233.801,216 L242.199,216 z"
         fill="#000000"
         id="path122" />
    </g>
    <g
       id="g1042"
       inkscape:label="beam">
      <path
         d="M145.875,324.011 C144.881,324.011 144.075,323.205 144.075,322.21 L144.075,319.812 C144.075,318.818 144.881,318.011 145.875,318.011 L150.078,318.011 L150.078,294.011 L145.875,294.011 C144.881,294.011 144.075,293.205 144.075,292.21 L144.075,289.812 C144.075,288.818 144.881,288.011 145.875,288.011 L160.282,288.011 C161.276,288.011 162.082,288.818 162.082,289.812 L162.082,292.21 C162.082,293.205 161.276,294.011 160.282,294.011 L156.078,294.011 L156.078,318.011 L160.282,318.011 C161.276,318.011 162.082,318.818 162.082,319.812 L162.082,322.21 C162.082,323.205 161.276,324.011 160.282,324.011 L145.875,324.011 z"
         fill="#000000"
         id="path128" />
    </g>
    <g
       id="g1039"
       inkscape:label="dot">
      <path
         d="M582.125,84.25 C578.742,84.25 576,81.508 576,78.125 C576,74.742 578.742,72 582.125,72 C585.508,72 588.25,74.742 588.25,78.125 C588.25,81.508 585.508,84.25 582.125,84.25 z"
         fill="#000000"
         id="path130"
         inkscape:label="path130" />
    </g>
    <g
       id="g1211"
       inkscape:label="fill_square">
      <path
         d="M322.223,72 C323.217,72 324.023,72.806 324.023,73.8 L324.023,106.2 C324.023,107.194 323.217,108 322.223,108 L289.823,108 C288.829,108 288.023,107.194 288.023,106.2 L288.023,73.8 C288.023,72.806 288.829,72 289.823,72 L322.223,72 z"
         fill="#000000"
         id="path116" />
    </g>
    <g
       id="g1033"
       inkscape:label="fill_circle">
      <path
         d="M234.003,180.011 C224.062,180.011 216.003,171.952 216.003,162.011 C216.003,152.07 224.062,144.011 234.003,144.011 C243.944,144.011 252.003,152.07 252.003,162.011 C252.003,171.952 243.944,180.011 234.003,180.011 z"
         fill="#000000"
         id="path134" />
    </g>
    <g
       id="g1027"
       inkscape:label="brr">
      <path
         d="M160.275,144.011 C161.269,144.011 162.075,144.818 162.075,145.812 L162.075,148.21 C162.075,149.205 161.269,150.011 160.275,150.011 L150.075,150.011 L150.075,174.011 L160.275,174.011 C161.269,174.011 162.075,174.818 162.075,175.812 L162.075,178.21 C162.075,179.205 161.269,180.011 160.275,180.011 L148.274,180.011 L148.274,180.011 L145.876,180.011 L145.876,180.011 L145.875,180.011 C144.953,179.825 145.343,180.038 144.696,179.39 C144.048,178.743 144.261,179.133 144.075,178.211 L144.075,145.811 C144.261,144.889 144.048,145.279 144.696,144.632 C145.343,143.984 144.953,144.197 145.875,144.011 L160.275,144.011 z"
         fill="#000000"
         id="path138" />
    </g>
    <g
       id="g1024"
       inkscape:label="brl">
      <path
         d="M145.875,252.011 C144.881,252.011 144.075,251.204 144.075,250.21 L144.075,247.812 C144.075,246.817 144.881,246.011 145.875,246.011 L156.075,246.011 L156.075,222.011 L145.875,222.011 C144.881,222.011 144.075,221.204 144.075,220.21 L144.075,217.812 C144.075,216.817 144.881,216.011 145.875,216.011 L157.876,216.011 L157.877,216.011 L160.274,216.011 L160.274,216.011 L160.275,216.011 C161.197,216.197 160.807,215.984 161.455,216.632 C162.102,217.279 161.889,216.889 162.075,217.811 L162.075,250.211 C161.889,251.133 162.102,250.743 161.455,251.39 C160.807,252.038 161.197,251.825 160.275,252.011 L145.875,252.011 z"
         fill="#000000"
         id="path140" />
    </g>
    <g
       id="g148"
       inkscape:label="arrowleft_hvybar">
      <path
         d="M288.027,233.519 C288.604,232.485 288.252,232.848 288.944,232.31 L316.625,216.277 C317.93,215.521 319.561,216.466 319.561,217.978 L319.561,250.044 C319.561,251.556 317.93,252.501 316.625,251.745 L288.944,235.712 C287.967,235.053 288.027,234.585 288.027,233.519 z"
         fill="#000000"
         id="path144" />
      <path
         d="M333.76,216.011 C334.755,216.011 335.561,216.817 335.561,217.811 L335.561,250.211 C335.561,251.205 334.755,252.011 333.76,252.011 L325.362,252.011 C324.368,252.011 323.561,251.205 323.561,250.211 L323.561,217.811 C323.561,216.817 324.368,216.011 325.362,216.011 L333.76,216.011 z"
         fill="#000000"
         id="path146" />
    </g>
    <g
       id="g156"
       inkscape:label="arrowleft_hvybar_hvybar">
      <path
         d="M504.148,377.519 C504.725,376.485 504.373,376.848 505.065,376.31 L532.746,360.277 C534.051,359.521 535.682,360.466 535.682,361.978 L535.682,394.044 C535.682,395.556 534.051,396.501 532.746,395.745 L505.065,379.712 C504.088,379.053 504.148,378.585 504.148,377.519 z"
         fill="#000000"
         id="path150" />
      <path
         d="M565.88,360.011 C566.875,360.011 567.682,360.817 567.682,361.811 L567.682,394.211 C567.682,395.205 566.875,396.011 565.88,396.011 L557.483,396.011 C556.488,396.011 555.682,395.205 555.682,394.211 L555.682,361.811 C555.682,360.817 556.488,360.011 557.483,360.011 L565.88,360.011 z"
         fill="#000000"
         id="path152" />
      <path
         d="M549.881,360.011 C550.875,360.011 551.682,360.817 551.682,361.811 L551.682,394.211 C551.682,395.205 550.875,396.011 549.881,396.011 L541.483,396.011 C540.488,396.011 539.682,395.205 539.682,394.211 L539.682,361.811 C539.682,360.817 540.488,360.011 541.483,360.011 L549.881,360.011 z"
         fill="#000000"
         id="path154" />
    </g>
    <g
       id="g164"
       inkscape:label="hvybar_hvybar_arrowright">
      <path
         d="M567.681,306.503 C567.103,307.537 567.456,307.174 566.763,307.712 L539.083,323.745 C537.778,324.501 536.147,323.556 536.147,322.044 L536.147,289.978 C536.147,288.466 537.778,287.521 539.083,288.277 L566.763,304.31 C567.74,304.969 567.681,305.437 567.681,306.503 z"
         fill="#000000"
         id="path158" />
      <path
         d="M505.948,324.011 C504.953,324.011 504.147,323.205 504.147,322.211 L504.147,289.811 C504.147,288.817 504.953,288.011 505.948,288.011 L514.346,288.011 C515.341,288.011 516.147,288.817 516.147,289.811 L516.147,322.211 C516.147,323.205 515.341,324.011 514.346,324.011 L505.948,324.011 z"
         fill="#000000"
         id="path160" />
      <path
         d="M521.948,324.011 C520.953,324.011 520.147,323.205 520.147,322.211 L520.147,289.811 C520.147,288.817 520.953,288.011 521.948,288.011 L530.345,288.011 C531.34,288.011 532.147,288.817 532.147,289.811 L532.147,322.211 C532.147,323.205 531.34,324.011 530.345,324.011 L521.948,324.011 z"
         fill="#000000"
         id="path162" />
    </g>
    <g
       id="g172"
       inkscape:label="arrowright_hvybar_hvybar">
      <path
         d="M535.537,450.503 C534.96,451.537 535.312,451.174 534.62,451.712 L506.939,467.745 C505.634,468.501 504.003,467.556 504.003,466.044 L504.003,433.978 C504.003,432.466 505.634,431.521 506.939,432.277 L534.62,448.31 C535.597,448.969 535.537,449.437 535.537,450.503 z"
         fill="#000000"
         id="path166" />
      <path
         d="M541.483,468.011 C540.488,468.011 539.682,467.205 539.682,466.211 L539.682,433.811 C539.682,432.817 540.488,432.011 541.483,432.011 L549.881,432.011 C550.875,432.011 551.682,432.817 551.682,433.811 L551.682,466.211 C551.682,467.205 550.875,468.011 549.881,468.011 L541.483,468.011 z"
         fill="#000000"
         id="path168" />
      <path
         d="M557.483,468.011 C556.488,468.011 555.682,467.205 555.682,466.211 L555.682,433.811 C555.682,432.817 556.488,432.011 557.483,432.011 L565.88,432.011 C566.875,432.011 567.682,432.817 567.682,433.811 L567.682,466.211 C567.682,467.205 566.875,468.011 565.88,468.011 L557.483,468.011 z"
         fill="#000000"
         id="path170" />
    </g>
    <g
       id="g180"
       inkscape:label="hvybar_hvybar_arrowleft">
      <path
         d="M536.147,521.519 C536.725,520.485 536.373,520.848 537.065,520.31 L564.746,504.277 C566.051,503.521 567.682,504.466 567.682,505.978 L567.682,538.044 C567.682,539.556 566.051,540.501 564.746,539.745 L537.065,523.712 C536.088,523.053 536.147,522.585 536.147,521.519 z"
         fill="#000000"
         id="path174" />
      <path
         d="M530.202,504.011 C531.196,504.011 532.003,504.817 532.003,505.811 L532.003,538.211 C532.003,539.205 531.196,540.011 530.202,540.011 L521.804,540.011 C520.809,540.011 520.003,539.205 520.003,538.211 L520.003,505.811 C520.003,504.817 520.809,504.011 521.804,504.011 L530.202,504.011 z"
         fill="#000000"
         id="path176" />
      <path
         d="M514.202,504.011 C515.197,504.011 516.003,504.817 516.003,505.811 L516.003,538.211 C516.003,539.205 515.197,540.011 514.202,540.011 L505.805,540.011 C504.81,540.011 504.003,539.205 504.003,538.211 L504.003,505.811 C504.003,504.817 504.81,504.011 505.805,504.011 L514.202,504.011 z"
         fill="#000000"
         id="path178" />
    </g>
    <g
       id="g186"
       inkscape:label="arrowright_dot">
      <path
         d="M401.878,168.136 C398.496,168.136 395.753,165.394 395.753,162.011 C395.753,158.628 398.496,155.886 401.878,155.886 C405.261,155.886 408.003,158.628 408.003,162.011 C408.003,165.394 405.261,168.136 401.878,168.136 z"
         fill="#000000"
         id="path182" />
      <path
         d="M391.537,162.503 C390.96,163.537 391.312,163.174 390.62,163.712 L362.939,179.745 C361.634,180.501 360.003,179.556 360.003,178.044 L360.003,145.978 C360.003,144.466 361.634,143.521 362.939,144.277 L390.62,160.31 C391.597,160.969 391.537,161.437 391.537,162.503 z"
         fill="#000000"
         id="path184" />
    </g>
    <g
       id="g196"
       inkscape:label="beam_chain_beam">
      <path
         d="M577.806,324.011 C576.812,324.011 576.006,323.205 576.006,322.21 L576.006,319.812 C576.006,318.818 576.812,318.011 577.807,318.011 L582.01,318.011 L582.01,294.011 L577.806,294.011 C576.812,294.011 576.006,293.205 576.006,292.21 L576.006,289.812 C576.006,288.818 576.812,288.011 577.807,288.011 L592.213,288.011 C593.207,288.011 594.013,288.818 594.013,289.812 L594.013,292.21 C594.013,293.205 593.207,294.011 592.213,294.011 L588.01,294.011 L588.01,318.011 L592.213,318.011 C593.207,318.011 594.013,318.818 594.013,319.812 L594.013,322.21 C594.013,323.205 593.207,324.011 592.213,324.011 L577.806,324.011 z"
         fill="#000000"
         id="path188" />
      <path
         d="M622.863,324.011 C621.869,324.011 621.063,323.205 621.063,322.21 L621.063,319.812 C621.063,318.818 621.869,318.011 622.863,318.011 L627.067,318.011 L627.067,294.011 L622.863,294.011 C621.869,294.011 621.063,293.205 621.063,292.21 L621.063,289.812 C621.063,288.818 621.869,288.011 622.863,288.011 L637.27,288.011 C638.264,288.011 639.07,288.818 639.07,289.812 L639.07,292.21 C639.07,293.205 638.264,294.011 637.27,294.011 L633.067,294.011 L633.067,318.011 L637.27,318.011 C638.264,318.011 639.07,318.818 639.07,319.812 L639.07,322.21 C639.07,323.205 638.264,324.011 637.27,324.011 L622.863,324.011 z"
         fill="#000000"
         id="path190" />
      <path
         d="M604.634,302.511 C608.017,302.511 610.759,304.302 610.759,306.511 C610.759,308.72 608.017,310.511 604.634,310.511 C601.252,310.511 598.509,308.72 598.509,306.511 C598.509,304.302 601.252,302.511 604.634,302.511 z"
         fill-opacity="0"
         stroke="#000000"
         stroke-width="2"
         id="path192" />
      <path
         d="M611.134,302.511 C614.517,302.511 617.259,304.302 617.259,306.511 C617.259,308.72 614.517,310.511 611.134,310.511 C607.752,310.511 605.009,308.72 605.009,306.511 C605.009,304.302 607.752,302.511 611.134,302.511 z"
         fill-opacity="0"
         stroke="#000000"
         stroke-width="2"
         id="path194" />
    </g>
    <g
       id="g202"
       inkscape:label="dot_arrowleft">
      <path
         d="M366.128,227.886 C369.511,227.886 372.253,230.628 372.253,234.011 C372.253,237.394 369.511,240.136 366.128,240.136 C362.746,240.136 360.003,237.394 360.003,234.011 C360.003,230.628 362.746,227.886 366.128,227.886 z"
         fill="#000000"
         id="path198" />
      <path
         d="M376.469,233.519 C377.047,232.485 376.694,232.848 377.387,232.31 L405.067,216.277 C406.372,215.521 408.003,216.466 408.003,217.978 L408.003,250.044 C408.003,251.556 406.372,252.501 405.067,251.745 L377.387,235.712 C376.41,235.053 376.469,234.585 376.469,233.519 z"
         fill="#000000"
         id="path200" />
    </g>
    <g
       id="g208"
       inkscape:label="hvybar_arrowright">
      <path
         d="M335.56,162.503 C334.983,163.537 335.335,163.174 334.643,163.712 L306.962,179.745 C305.657,180.501 304.026,179.556 304.026,178.044 L304.026,145.978 C304.026,144.466 305.657,143.521 306.962,144.277 L334.643,160.31 C335.62,160.969 335.56,161.437 335.56,162.503 z"
         fill="#000000"
         id="path204" />
      <path
         d="M289.827,180.011 C288.833,180.011 288.026,179.205 288.026,178.211 L288.026,145.811 C288.026,144.817 288.833,144.011 289.827,144.011 L298.225,144.011 C299.22,144.011 300.026,144.817 300.026,145.811 L300.026,178.211 C300.026,179.205 299.22,180.011 298.225,180.011 L289.827,180.011 z"
         fill="#000000"
         id="path206" />
    </g>
    <g
       id="g214"
       inkscape:label="hvybar_arrowleft">
      <path
         d="M376.001,521.519 C376.578,520.484 376.226,520.847 376.918,520.31 L404.599,504.277 C405.904,503.521 407.535,504.465 407.535,505.977 L407.535,538.044 C407.535,539.555 405.904,540.5 404.599,539.745 L376.918,523.711 C375.941,523.052 376.001,522.584 376.001,521.519 z"
         fill="#000000"
         id="path210" />
      <path
         d="M370.199,504.01 C371.194,504.01 372,504.816 372,505.811 L372,538.21 C372,539.205 371.194,540.011 370.199,540.01 L361.801,540.01 C360.807,540.011 360,539.205 360,538.211 L360,505.811 C360,504.816 360.807,504.01 361.801,504.01 L370.199,504.01 z"
         fill="#000000"
         id="path212" />
    </g>
    <g
       id="g220"
       inkscape:label="arrowright_hvybar">
      <path
         d="M391.534,450.503 C390.957,451.537 391.309,451.174 390.617,451.711 L362.936,467.745 C361.631,468.501 360,467.556 360,466.044 L360,433.978 C360,432.466 361.631,431.521 362.936,432.277 L390.617,448.31 C391.594,448.969 391.534,449.437 391.534,450.503 z"
         fill="#000000"
         id="path216" />
      <path
         d="M397.801,468.011 C396.806,468.011 396,467.205 396,466.211 L396,433.811 C396,432.817 396.806,432.011 397.801,432.011 L406.199,432.011 C407.193,432.011 408,432.817 408,433.811 L408,466.211 C408,467.205 407.193,468.011 406.199,468.011 L397.801,468.011 z"
         fill="#000000"
         id="path218" />
    </g>
    <g
       id="g869"
       inkscape:label="spacer">
      <path
         d="M399.4,72 C399.731,72 400,72.806 400,73.8 L400,106.2 C400,107.194 399.731,108 399.4,108 L396.6,108 C396.269,108 396,107.194 396,106.2 L396,73.8 C396,72.806 396.269,72 396.6,72 L399.4,72 z"
         fill="#00ED9A"
         id="path222" />
    </g>
    <g
       id="g228"
       inkscape:label="brr_arrl">
      <path
         d="M304.226,288.011 C305.22,288.011 306.026,288.818 306.026,289.812 L306.026,292.21 C306.026,293.205 305.22,294.011 304.226,294.011 L294.026,294.011 L294.026,318.011 L304.226,318.011 C305.22,318.011 306.026,318.818 306.026,319.812 L306.026,322.21 C306.026,323.205 305.22,324.011 304.226,324.011 L292.225,324.011 L292.225,324.011 L289.827,324.011 L289.827,324.011 L289.826,324.011 C288.904,323.825 289.294,324.038 288.647,323.39 C287.999,322.743 288.212,323.133 288.026,322.211 L288.026,289.811 C288.212,288.889 287.999,289.279 288.647,288.632 C289.294,287.984 288.904,288.197 289.826,288.011 L304.226,288.011 z"
         fill="#000000"
         id="path224" />
      <path
         d="M328.139,297.859 C329.137,298.435 328.897,298.033 329.124,298.861 L329.124,302.969 L335.026,302.969 C335.578,302.969 336.026,303.417 336.026,303.969 L336.026,308.05 C336.026,308.603 335.578,309.05 335.026,309.05 L329.124,309.05 L329.124,313.161 C329.124,313.931 328.29,314.412 327.624,314.027 L315.239,306.877 C314.572,306.492 314.572,305.53 315.239,305.145 L327.624,297.994 L328.139,297.859 z"
         fill="#000000"
         id="path226" />
    </g>
    <g
       id="g234"
       inkscape:label="beam_arrl">
      <path
         d="M361.803,324.011 C360.809,324.011 360.003,323.205 360.003,322.21 L360.003,319.812 C360.003,318.818 360.809,318.011 361.803,318.011 L366.006,318.011 L366.006,294.011 L361.803,294.011 C360.809,294.011 360.003,293.205 360.003,292.21 L360.003,289.812 C360.003,288.818 360.809,288.011 361.803,288.011 L376.21,288.011 C377.204,288.011 378.01,288.818 378.01,289.812 L378.01,292.21 C378.01,293.205 377.204,294.011 376.21,294.011 L372.006,294.011 L372.006,318.011 L376.21,318.011 C377.204,318.011 378.01,318.818 378.01,319.812 L378.01,322.21 C378.01,323.205 377.204,324.011 376.21,324.011 L361.803,324.011 z"
         fill="#000000"
         id="path230" />
      <path
         d="M400.117,297.859 C401.114,298.435 400.875,298.033 401.101,298.861 L401.101,302.969 L407.003,302.969 C407.556,302.969 408.003,303.417 408.003,303.969 L408.003,308.05 C408.003,308.603 407.556,309.05 407.003,309.05 L401.101,309.05 L401.101,313.161 C401.101,313.931 400.268,314.412 399.601,314.027 L387.216,306.877 C386.55,306.492 386.55,305.53 387.216,305.145 L399.601,297.994 L400.117,297.859 z"
         fill="#000000"
         id="path232" />
    </g>
    <g
       id="g240"
       inkscape:label="arrowheadright_beam">
      <path
         d="M391.534,594.502 C390.957,595.537 391.309,595.174 390.617,595.711 L362.936,611.745 C361.631,612.5 360,611.556 360,610.044 L360,577.977 C360,576.466 361.631,575.521 362.936,576.276 L390.617,592.31 C391.594,592.969 391.534,593.437 391.534,594.502 z"
         fill="#000000"
         id="path236" />
      <path
         d="M406.207,576.011 C407.201,576.01 408.007,576.817 408.007,577.812 L408.007,580.209 C408.007,581.204 407.201,582.01 406.207,582.01 L402.003,582.011 L402.003,606.011 L406.207,606.011 C407.201,606.01 408.007,606.817 408.007,607.812 L408.007,610.209 C408.007,611.204 407.201,612.01 406.207,612.01 L391.8,612.011 C390.806,612.01 390,611.204 390,610.209 L390,607.812 C390,606.817 390.806,606.01 391.8,606.01 L396.003,606.011 L396.003,582.011 L391.8,582.011 C390.806,582.01 390,581.204 390,580.209 L390,577.812 C390,576.817 390.806,576.01 391.8,576.01 L406.207,576.011 z"
         fill="#000000"
         id="path238" />
    </g>
    <g
       id="g246"
       inkscape:label="beam_arrowheadleft">
      <path
         d="M376.001,665.519 C376.578,664.484 376.226,664.847 376.918,664.31 L404.599,648.277 C405.904,647.521 407.535,648.465 407.535,649.977 L407.535,682.044 C407.535,683.556 405.904,684.5 404.599,683.745 L376.918,667.711 C375.941,667.052 376.001,666.584 376.001,665.519 z"
         fill="#000000"
         id="path242" />
      <path
         d="M376.207,648.011 C377.201,648.01 378.007,648.817 378.007,649.812 L378.007,652.209 C378.007,653.204 377.201,654.01 376.207,654.01 L372.003,654.011 L372.003,678.011 L376.207,678.011 C377.201,678.01 378.007,678.817 378.007,679.812 L378.007,682.209 C378.007,683.204 377.201,684.01 376.207,684.01 L361.8,684.011 C360.806,684.01 360,683.204 360,682.209 L360,679.812 C360,678.817 360.806,678.01 361.8,678.01 L366.003,678.011 L366.003,654.011 L361.8,654.011 C360.806,654.01 360,653.204 360,652.209 L360,649.812 C360,648.817 360.806,648.01 361.8,648.01 L376.207,648.011 z"
         fill="#000000"
         id="path244" />
    </g>
    <g
       id="g252"
       inkscape:label="arrr_beam">
      <path
         d="M406.203,360 C407.197,360 408.003,360.806 408.003,361.801 L408.003,364.199 C408.003,365.194 407.197,366 406.203,366 L402,366 L402,390 L406.203,390 C407.197,390 408.003,390.806 408.003,391.801 L408.003,394.199 C408.003,395.194 407.197,396 406.203,396 L391.797,396 C390.803,396 389.997,395.194 389.997,394.199 L389.997,391.801 C389.997,390.806 390.803,390 391.797,390 L396,390 L396,366 L391.797,366 C390.803,366 389.997,365.194 389.997,364.199 L389.997,361.801 C389.997,360.806 390.803,360 391.797,360 L406.203,360 z"
         fill="#000000"
         id="path248" />
      <path
         d="M367.874,386.152 C366.876,385.576 367.116,385.978 366.889,385.151 L366.889,381.042 L360.987,381.042 C360.435,381.042 359.987,380.594 359.987,380.042 L359.987,375.961 C359.987,375.408 360.435,374.961 360.987,374.961 L366.889,374.961 L366.889,370.85 C366.889,370.08 367.723,369.599 368.389,369.984 L380.774,377.134 C381.441,377.519 381.441,378.481 380.774,378.866 L368.389,386.017 L367.874,386.152 z"
         fill="#000000"
         id="path250" />
    </g>
    <g
       id="g258"
       inkscape:label="hvybar_arrl">
      <path
         d="M226.202,360.011 C227.197,360.011 228.003,360.817 228.003,361.811 L228.003,394.211 C228.003,395.205 227.197,396.011 226.202,396.011 L217.805,396.011 C216.81,396.011 216.003,395.205 216.003,394.211 L216.003,361.811 C216.003,360.817 216.81,360.011 217.805,360.011 L226.202,360.011 z"
         fill="#000000"
         id="path254" />
      <path
         d="M244.117,369.859 C245.114,370.435 244.875,370.033 245.101,370.861 L245.101,374.969 L251.003,374.969 C251.556,374.969 252.003,375.417 252.003,375.969 L252.003,380.05 C252.003,380.603 251.556,381.05 251.003,381.05 L245.101,381.05 L245.101,385.161 C245.101,385.931 244.268,386.412 243.601,386.027 L231.216,378.877 C230.55,378.492 230.55,377.53 231.216,377.145 L243.601,369.994 L244.117,369.859 z"
         fill="#000000"
         id="path256" />
    </g>
    <g
       id="g264"
       inkscape:label="arrr_brl">
      <path
         d="M319.826,396.011 C318.832,396.011 318.026,395.204 318.026,394.21 L318.026,391.812 C318.026,390.817 318.832,390.011 319.826,390.011 L330.026,390.011 L330.026,366.011 L319.826,366.011 C318.832,366.011 318.026,365.204 318.026,364.21 L318.026,361.812 C318.026,360.817 318.832,360.011 319.826,360.011 L331.827,360.011 L331.827,360.011 L334.225,360.011 L334.225,360.011 L334.226,360.011 C335.148,360.197 334.758,359.984 335.405,360.632 C336.053,361.279 335.84,360.889 336.026,361.811 L336.026,394.211 C335.84,395.133 336.053,394.743 335.405,395.39 C334.758,396.038 335.148,395.825 334.226,396.011 L319.826,396.011 z"
         fill="#000000"
         id="path260" />
      <path
         d="M295.913,386.163 C294.915,385.587 295.155,385.989 294.928,385.161 L294.928,381.053 L289.026,381.053 C288.474,381.053 288.026,380.605 288.026,380.053 L288.026,375.972 C288.026,375.419 288.474,374.972 289.026,374.972 L294.928,374.972 L294.928,370.861 C294.928,370.091 295.762,369.61 296.428,369.995 L308.813,377.145 C309.48,377.53 309.48,378.492 308.813,378.877 L296.428,386.028 L295.913,386.163 z"
         fill="#000000"
         id="path262" />
    </g>
    <g
       id="g270"
       inkscape:label="brr_arrr">
      <path
         d="M304.226,432.011 C305.22,432.011 306.026,432.818 306.026,433.812 L306.026,436.21 C306.026,437.205 305.22,438.011 304.226,438.011 L294.026,438.011 L294.026,462.011 L304.226,462.011 C305.22,462.011 306.026,462.818 306.026,463.812 L306.026,466.21 C306.026,467.205 305.22,468.011 304.226,468.011 L292.225,468.011 L292.225,468.011 L289.827,468.011 L289.827,468.011 L289.826,468.011 C288.904,467.825 289.294,468.038 288.647,467.39 C287.999,466.743 288.212,467.133 288.026,466.211 L288.026,433.811 C288.212,432.889 287.999,433.279 288.647,432.632 C289.294,431.984 288.904,432.197 289.826,432.011 L304.226,432.011 z"
         fill="#000000"
         id="path266" />
      <path
         d="M322.626,458.163 C321.628,457.587 321.868,457.989 321.641,457.161 L321.641,453.053 L315.739,453.053 C315.187,453.053 314.739,452.605 314.739,452.053 L314.739,447.972 C314.739,447.419 315.187,446.972 315.739,446.972 L321.641,446.972 L321.641,442.861 C321.641,442.091 322.475,441.61 323.141,441.995 L335.526,449.145 C336.193,449.53 336.193,450.492 335.526,450.877 L323.141,458.028 L322.626,458.163 z"
         fill="#000000"
         id="path268" />
    </g>
    <g
       id="g276"
       inkscape:label="arrl_brl">
      <path
         d="M319.826,540.011 C318.832,540.011 318.026,539.204 318.026,538.21 L318.026,535.812 C318.026,534.817 318.832,534.011 319.826,534.011 L330.026,534.011 L330.026,510.011 L319.826,510.011 C318.832,510.011 318.026,509.204 318.026,508.21 L318.026,505.812 C318.026,504.817 318.832,504.011 319.826,504.011 L331.827,504.011 L331.827,504.011 L334.225,504.011 L334.225,504.011 L334.226,504.011 C335.148,504.197 334.758,503.984 335.405,504.632 C336.053,505.279 335.84,504.889 336.026,505.811 L336.026,538.211 C335.84,539.133 336.053,538.743 335.405,539.39 C334.758,540.038 335.148,539.825 334.226,540.011 L319.826,540.011 z"
         fill="#000000"
         id="path272" />
      <path
         d="M301.426,530.163 C302.424,529.587 302.184,529.989 302.411,529.161 L302.411,525.053 L308.313,525.053 C308.865,525.053 309.313,524.605 309.313,524.053 L309.313,519.971 C309.313,519.419 308.865,518.971 308.313,518.971 L302.411,518.971 L302.411,514.861 C302.411,514.091 301.577,513.61 300.911,513.995 L288.526,521.145 C287.859,521.53 287.859,522.492 288.526,522.877 L300.911,530.027 L301.426,530.163 z"
         fill="#000000"
         id="path274" />
    </g>
    <g
       id="g282"
       inkscape:label="arrr_hvybar">
      <path
         d="M241.805,324.011 C240.81,324.011 240.003,323.205 240.003,322.211 L240.003,289.811 C240.003,288.817 240.81,288.011 241.805,288.011 L250.202,288.011 C251.197,288.011 252.003,288.817 252.003,289.811 L252.003,322.211 C252.003,323.205 251.197,324.011 250.202,324.011 L241.805,324.011 z"
         fill="#000000"
         id="path278" />
      <path
         d="M223.89,314.163 C222.892,313.587 223.132,313.989 222.906,313.161 L222.906,309.053 L217.003,309.053 C216.451,309.053 216.003,308.605 216.003,308.053 L216.003,303.972 C216.003,303.419 216.451,302.972 217.003,302.972 L222.906,302.972 L222.906,298.861 C222.906,298.091 223.739,297.61 224.406,297.995 L236.79,305.145 C237.457,305.53 237.457,306.492 236.79,306.877 L224.406,314.028 L223.89,314.163 z"
         fill="#000000"
         id="path280" />
    </g>
    <g
       id="g290"
       inkscape:label="arrl_dot_arrr">
      <path
         d="M535.545,590.288 C532.162,590.288 529.42,587.546 529.42,584.163 C529.42,580.78 532.162,578.038 535.545,578.038 C538.928,578.038 541.67,580.78 541.67,584.163 C541.67,587.546 538.928,590.288 535.545,590.288 z"
         fill="#000000"
         id="path284" />
      <path
         d="M517.404,576.011 C518.401,576.587 518.162,576.185 518.388,577.012 L518.388,581.121 L524.29,581.121 C524.843,581.121 525.29,581.569 525.29,582.121 L525.29,586.202 C525.29,586.754 524.843,587.202 524.29,587.202 L518.388,587.202 L518.388,591.313 C518.388,592.083 517.555,592.564 516.888,592.179 L504.503,585.029 C503.837,584.644 503.837,583.682 504.503,583.297 L516.888,576.146 L517.404,576.011 z"
         fill="#000000"
         id="path286" />
      <path
         d="M553.673,592.315 C552.675,591.739 552.915,592.141 552.688,591.313 L552.688,587.205 L546.786,587.205 C546.234,587.204 545.786,586.757 545.786,586.205 L545.786,582.123 C545.786,581.571 546.234,581.123 546.786,581.123 L552.688,581.123 L552.688,577.013 C552.688,576.243 553.522,575.762 554.188,576.147 L566.573,583.297 C567.24,583.682 567.24,584.644 566.573,585.029 L554.188,592.179 L553.673,592.315 z"
         fill="#000000"
         id="path288" />
    </g>
    <g
       id="g298"
       inkscape:label="arrr_dot_arrl">
      <path
         d="M535.545,662.288 C532.162,662.288 529.42,659.546 529.42,656.163 C529.42,652.78 532.162,650.038 535.545,650.038 C538.928,650.038 541.67,652.78 541.67,656.163 C541.67,659.546 538.928,662.288 535.545,662.288 z"
         fill="#000000"
         id="path292" />
      <path
         d="M511.89,664.315 C510.892,663.739 511.132,664.141 510.906,663.313 L510.906,659.205 L505.003,659.205 C504.451,659.204 504.003,658.757 504.003,658.205 L504.003,654.123 C504.003,653.571 504.451,653.123 505.003,653.123 L510.906,653.123 L510.906,649.013 C510.906,648.243 511.739,647.762 512.406,648.147 L524.79,655.297 C525.457,655.682 525.457,656.644 524.79,657.029 L512.406,664.179 L511.89,664.315 z"
         fill="#000000"
         id="path294" />
      <path
         d="M559.186,648.011 C560.184,648.587 559.944,648.185 560.171,649.012 L560.171,653.121 L566.073,653.121 C566.625,653.121 567.073,653.569 567.073,654.121 L567.073,658.202 C567.073,658.754 566.625,659.202 566.073,659.202 L560.171,659.202 L560.171,663.313 C560.171,664.083 559.337,664.564 558.671,664.179 L546.286,657.029 C545.619,656.644 545.619,655.682 546.286,655.297 L558.671,648.146 L559.186,648.011 z"
         fill="#000000"
         id="path296" />
    </g>
    <g
       id="g715"
       inkscape:label="brfr">
      <path
         d="M160.275,360.011 C161.269,360.011 162.075,360.818 162.075,361.812 L162.075,364.21 C162.075,365.205 161.269,366.011 160.275,366.011 L150.075,366.011 L150.075,390.011 L160.275,390.011 C161.269,390.011 162.075,390.818 162.075,391.812 L162.075,394.21 C162.075,395.205 161.269,396.011 160.275,396.011 L148.274,396.011 L148.274,396.011 L145.876,396.011 L145.876,396.011 L145.875,396.011 C144.953,395.825 145.343,396.038 144.696,395.39 C144.048,394.743 144.261,395.133 144.075,394.211 L144.075,361.811 C144.261,360.889 144.048,361.279 144.696,360.632 C145.343,359.984 144.953,360.197 145.875,360.011 L160.275,360.011 z"
         fill="#000000"
         id="path142" />
      <path
         d="M162.082,364.089 L162.082,391.911 L150.45,391.911 C149.346,391.911 148.45,391.023 148.45,389.927 L148.45,366.073 C148.45,364.977 149.346,364.089 150.45,364.089 L162.082,364.089 z"
         fill="#686868"
         id="path300" />
    </g>
    <g
       id="g711"
       inkscape:label="brfl">
      <path
         d="M145.878,468.011 C144.884,468.011 144.078,467.204 144.078,466.21 L144.079,463.812 C144.078,462.817 144.884,462.011 145.878,462.011 L156.078,462.011 L156.078,438.011 L145.878,438.011 C144.884,438.011 144.078,437.204 144.078,436.21 L144.079,433.812 C144.078,432.817 144.884,432.011 145.878,432.011 L157.879,432.011 L157.88,432.011 L160.277,432.011 L160.278,432.011 L160.278,432.011 C161.2,432.197 160.811,431.984 161.458,432.632 C162.105,433.279 161.892,432.889 162.078,433.811 L162.078,466.211 C161.892,467.133 162.105,466.743 161.458,467.39 C160.811,468.038 161.2,467.825 160.278,468.011 L145.878,468.011 z"
         fill="#000000"
         id="path302" />
      <path
         d="M144.072,463.933 L144.072,436.111 L155.703,436.111 C156.808,436.111 157.703,436.999 157.703,438.095 L157.703,461.949 C157.703,463.045 156.808,463.933 155.703,463.933 L144.072,463.933 z"
         fill="#686868"
         id="path304" />
    </g>
    <g
       id="g312"
       inkscape:label="brfr_arrl"
       style="display:inline">
      <path
         d="m 327.905,585.87 c 0.998,0.576 0.758,0.174 0.985,1.001 v 4.109 h 5.902 c 0.552,0 1,0.448 1,1 v 4.081 c 0,0.553 -0.448,1 -1,1 h -5.902 v 4.111 c 0,0.77 -0.834,1.251 -1.5,0.866 l -12.385,-7.15 c -0.667,-0.385 -0.667,-1.347 0,-1.732 l 12.385,-7.151 z"
         fill="#000000"
         id="path306" />
      <path
         d="m 303.989,576.011 c 0.994,0 1.8,0.807 1.8,1.801 v 2.398 c 0,0.995 -0.806,1.801 -1.8,1.801 h -10.2 v 24 h 10.2 c 0.994,0 1.8,0.807 1.8,1.801 v 2.398 c 0,0.995 -0.806,1.801 -1.8,1.801 h -12.001 -10e-4 -2.397 v 0 h -10e-4 c -0.922,-0.186 -0.533,0.027 -1.18,-0.621 -0.647,-0.647 -0.434,-0.257 -0.62,-1.179 v -32.4 c 0.186,-0.922 -0.027,-0.532 0.62,-1.179 0.647,-0.648 0.258,-0.435 1.18,-0.621 z"
         fill="#000000"
         id="path308" />
      <path
         d="m 305.795,580.089 v 27.822 h -11.631 c -1.105,0 -2,-0.888 -2,-1.984 v -23.854 c 0,-1.096 0.895,-1.984 2,-1.984 z"
         fill="#686868"
         id="path310" />
    </g>
    <g
       id="g320"
       inkscape:label="arrr_brfl">
      <path
         d="M295.675,674.162 C294.678,673.586 294.917,673.988 294.691,673.161 L294.691,669.052 L288.789,669.052 C288.236,669.052 287.789,668.605 287.789,668.052 L287.789,663.971 C287.789,663.419 288.236,662.971 288.789,662.971 L294.691,662.971 L294.691,658.86 C294.691,658.09 295.524,657.609 296.191,657.994 L308.576,665.145 C309.242,665.529 309.242,666.492 308.576,666.877 L296.191,674.027 L295.675,674.162 z"
         fill="#000000"
         id="path314" />
      <path
         d="M319.599,684.011 C318.604,684.01 317.798,683.204 317.798,682.209 L317.799,679.812 C317.798,678.817 318.604,678.01 319.598,678.011 L329.798,678.011 L329.798,654.011 L319.599,654.011 C318.604,654.01 317.798,653.204 317.798,652.209 L317.799,649.812 C317.798,648.817 318.604,648.01 319.598,648.011 L331.599,648.011 L331.6,648.011 L333.997,648.011 L333.998,648.011 L333.998,648.011 C334.92,648.197 334.531,647.984 335.178,648.631 C335.826,649.278 335.612,648.889 335.798,649.811 L335.798,682.211 C335.612,683.133 335.826,682.743 335.178,683.39 C334.531,684.038 334.92,683.824 333.998,684.011 L319.599,684.011 z"
         fill="#000000"
         id="path316" />
      <path
         d="M317.792,679.932 L317.792,652.111 L329.423,652.111 C330.528,652.111 331.423,652.999 331.423,654.094 L331.423,677.949 C331.423,679.044 330.528,679.932 329.423,679.932 L317.792,679.932 z"
         fill="#686868"
         id="path318" />
    </g>
    <g
       id="g328"
       inkscape:label="brfr_arrr">
      <path
         d="M322.626,729.87 C321.628,730.446 321.868,730.044 321.641,730.871 L321.641,734.98 L315.739,734.98 C315.187,734.98 314.739,735.428 314.739,735.98 L314.739,740.061 C314.739,740.614 315.187,741.061 315.739,741.061 L321.641,741.061 L321.641,745.172 C321.641,745.942 322.475,746.423 323.141,746.038 L335.526,738.888 C336.193,738.503 336.193,737.541 335.526,737.156 L323.141,730.005 L322.626,729.87 z"
         fill="#000000"
         id="path322" />
      <path
         d="M304.223,720.011 C305.217,720.011 306.023,720.818 306.023,721.812 L306.023,724.21 C306.023,725.205 305.217,726.011 304.223,726.011 L294.023,726.011 L294.023,750.011 L304.223,750.011 C305.217,750.011 306.023,750.818 306.023,751.812 L306.023,754.21 C306.023,755.205 305.217,756.011 304.223,756.011 L292.222,756.011 L292.221,756.011 L289.824,756.011 L289.824,756.011 L289.823,756.011 C288.901,755.825 289.291,756.038 288.643,755.39 C287.996,754.743 288.209,755.133 288.023,754.211 L288.023,721.811 C288.209,720.889 287.996,721.279 288.643,720.632 C289.291,719.984 288.901,720.197 289.823,720.011 L304.223,720.011 z"
         fill="#000000"
         id="path324" />
      <path
         d="M306.029,724.089 L306.029,751.911 L294.398,751.911 C293.293,751.911 292.398,751.023 292.398,749.927 L292.398,726.073 C292.398,724.977 293.293,724.089 294.398,724.089 L306.029,724.089 z"
         fill="#686868"
         id="path326" />
    </g>
    <g
       id="g336"
       inkscape:label="arrl_brfl">
      <path
         d="M301.423,818.162 C302.421,817.586 302.181,817.988 302.407,817.161 L302.407,813.052 L308.31,813.052 C308.862,813.052 309.31,812.605 309.31,812.052 L309.31,807.971 C309.31,807.419 308.862,806.971 308.31,806.971 L302.407,806.971 L302.407,802.86 C302.408,802.09 301.574,801.609 300.908,801.994 L288.523,809.145 C287.856,809.529 287.856,810.492 288.523,810.877 L300.907,818.027 L301.423,818.162 z"
         fill="#000000"
         id="path330" />
      <path
         d="M319.833,828.011 C318.839,828.01 318.033,827.204 318.033,826.209 L318.033,823.812 C318.033,822.817 318.839,822.01 319.833,822.011 L330.033,822.011 L330.033,798.011 L319.833,798.011 C318.839,798.01 318.033,797.204 318.033,796.209 L318.033,793.812 C318.033,792.817 318.839,792.01 319.833,792.011 L331.834,792.011 L331.834,792.011 L334.231,792.011 L334.232,792.011 L334.233,792.011 C335.155,792.197 334.765,791.984 335.412,792.631 C336.06,793.278 335.846,792.889 336.033,793.811 L336.033,826.211 C335.846,827.133 336.06,826.743 335.412,827.39 C334.765,828.038 335.155,827.824 334.233,828.011 L319.833,828.011 z"
         fill="#000000"
         id="path332" />
      <path
         d="M318.026,823.932 L318.026,796.111 L329.658,796.111 C330.762,796.111 331.658,796.999 331.658,798.094 L331.658,821.949 C331.658,823.044 330.762,823.932 329.658,823.932 L318.026,823.932 z"
         fill="#686868"
         id="path334" />
    </g>
    <g
       id="g346"
       inkscape:label="brfl_arrr_beam">
      <path
         d="M565.273,720.011 C566.268,720.011 567.074,720.817 567.073,721.812 L567.073,724.21 C567.074,725.204 566.268,726.011 565.273,726.011 L561.07,726.011 L561.07,750.011 L565.273,750.011 C566.268,750.011 567.074,750.817 567.073,751.812 L567.073,754.21 C567.074,755.204 566.268,756.011 565.273,756.011 L550.867,756.011 C549.873,756.011 549.067,755.204 549.067,754.21 L549.067,751.812 C549.067,750.817 549.873,750.011 550.867,750.011 L555.07,750.011 L555.07,726.011 L550.867,726.011 C549.873,726.011 549.067,725.204 549.067,724.21 L549.067,721.812 C549.067,720.817 549.873,720.011 550.867,720.011 L565.273,720.011 z"
         fill="#000000"
         id="path338" />
      <path
         d="M533.896,746.174 C532.898,745.598 533.138,746 532.912,745.172 L532.912,741.064 L527.009,741.064 C526.457,741.064 526.009,740.616 526.009,740.064 L526.009,735.983 C526.009,735.43 526.457,734.983 527.009,734.983 L532.912,734.983 L532.912,730.872 C532.912,730.102 533.745,729.621 534.412,730.006 L546.796,737.156 C547.463,737.541 547.463,738.503 546.797,738.888 L534.412,746.039 L533.896,746.174 z"
         fill="#000000"
         id="path340" />
      <path
         d="M505.81,756.011 C504.816,756.011 504.01,755.204 504.01,754.21 L504.01,751.812 C504.01,750.817 504.816,750.011 505.81,750.011 L516.01,750.011 L516.01,726.011 L505.81,726.011 C504.816,726.011 504.01,725.204 504.01,724.21 L504.01,721.812 C504.01,720.817 504.816,720.011 505.81,720.011 L517.811,720.011 L517.811,720.011 L520.208,720.011 L520.209,720.011 L520.21,720.011 C521.132,720.197 520.742,719.984 521.389,720.632 C522.037,721.279 521.824,720.889 522.01,721.811 L522.01,754.211 C521.824,755.133 522.037,754.743 521.389,755.39 C520.742,756.038 521.132,755.825 520.21,756.011 L505.81,756.011 z"
         fill="#000000"
         id="path342" />
      <path
         d="M504.003,751.933 L504.003,724.111 L515.635,724.111 C516.739,724.111 517.635,724.999 517.635,726.095 L517.635,749.949 C517.635,751.045 516.739,751.933 515.635,751.933 L504.003,751.933 z"
         fill="#686868"
         id="path344" />
    </g>
    <g
       id="g356"
       inkscape:label="beam_arrl_brfr">
      <path
         d="M565.266,792.011 C566.261,792.011 567.067,792.818 567.067,793.812 L567.067,796.21 C567.067,797.205 566.261,798.011 565.267,798.011 L555.067,798.011 L555.067,822.011 L565.266,822.011 C566.261,822.011 567.067,822.818 567.067,823.812 L567.067,826.21 C567.067,827.205 566.261,828.011 565.267,828.011 L553.266,828.011 L553.265,828.011 L550.868,828.011 L550.867,828.011 L550.867,828.011 C549.945,827.825 550.334,828.038 549.687,827.39 C549.04,826.743 549.253,827.133 549.067,826.211 L549.067,793.811 C549.253,792.889 549.04,793.279 549.687,792.632 C550.334,791.984 549.945,792.197 550.867,792.011 L565.266,792.011 z"
         fill="#000000"
         id="path348" />
      <path
         d="M567.073,796.089 L567.073,823.911 L555.442,823.911 C554.337,823.911 553.442,823.023 553.442,821.927 L553.442,798.073 C553.442,796.977 554.337,796.089 555.442,796.089 L567.073,796.089 z"
         fill="#686868"
         id="path350" />
      <path
         d="M520.21,792.022 C521.204,792.022 522.01,792.828 522.01,793.823 L522.01,796.221 C522.01,797.215 521.204,798.022 520.21,798.022 L516.007,798.022 L516.007,822.022 L520.21,822.022 C521.204,822.022 522.01,822.828 522.01,823.823 L522.01,826.221 C522.01,827.215 521.204,828.022 520.21,828.022 L505.803,828.022 C504.809,828.022 504.003,827.215 504.003,826.221 L504.003,823.823 C504.003,822.828 504.809,822.022 505.803,822.022 L510.007,822.022 L510.007,798.022 L505.803,798.022 C504.809,798.022 504.003,797.215 504.003,796.221 L504.003,793.823 C504.003,792.828 504.809,792.022 505.803,792.022 L520.21,792.022 z"
         fill="#000000"
         id="path352" />
      <path
         d="M538.302,801.859 C539.299,802.435 539.06,802.033 539.286,802.861 L539.286,806.969 L545.188,806.969 C545.741,806.969 546.188,807.417 546.188,807.969 L546.188,812.05 C546.188,812.603 545.741,813.05 545.188,813.05 L539.286,813.05 L539.286,817.161 C539.286,817.931 538.453,818.412 537.786,818.027 L525.401,810.877 C524.735,810.492 524.735,809.53 525.401,809.145 L537.786,801.994 L538.302,801.859 z"
         fill="#000000"
         id="path354" />
    </g>
    <g
       id="g366"
       inkscape:label="brfl_arrr_brfl">
      <path
         d="M637.266,144 C638.261,144 639.067,144.807 639.067,145.801 L639.067,148.199 C639.067,149.194 638.261,150 637.267,150 L627.067,150 L627.067,174 L637.266,174 C638.261,174 639.067,174.807 639.067,175.801 L639.067,178.199 C639.067,179.194 638.261,180 637.267,180 L625.266,180 L625.265,180 L622.868,180 L622.867,180 L622.867,180 C621.945,179.814 622.334,180.027 621.687,179.379 C621.04,178.732 621.253,179.122 621.067,178.2 L621.067,145.8 C621.253,144.878 621.04,145.268 621.687,144.621 C622.334,143.973 621.945,144.186 622.867,144 L637.266,144 z"
         fill="#000000"
         id="path358" />
      <path
         d="M605.896,170.163 C604.898,169.587 605.138,169.989 604.912,169.161 L604.912,165.053 L599.009,165.053 C598.457,165.053 598.009,164.605 598.009,164.053 L598.009,159.972 C598.009,159.419 598.457,158.972 599.009,158.972 L604.912,158.972 L604.912,154.861 C604.912,154.091 605.745,153.61 606.412,153.995 L618.796,161.145 C619.463,161.53 619.463,162.492 618.797,162.877 L606.412,170.027 L605.896,170.163 z"
         fill="#000000"
         id="path360" />
      <path
         d="M577.81,180 C576.816,180 576.01,179.193 576.01,178.199 L576.01,175.801 C576.01,174.806 576.816,174 577.81,174 L588.01,174 L588.01,150 L577.81,150 C576.816,150 576.01,149.193 576.01,148.199 L576.01,145.801 C576.01,144.806 576.816,144 577.81,144 L589.811,144 L589.811,144 L592.208,144 L592.209,144 L592.21,144 C593.132,144.186 592.742,143.973 593.389,144.621 C594.037,145.268 593.824,144.878 594.01,145.8 L594.01,178.2 C593.824,179.122 594.037,178.732 593.389,179.379 C592.742,180.027 593.132,179.814 592.21,180 L577.81,180 z"
         fill="#000000"
         id="path362" />
      <path
         d="M576.003,175.922 L576.003,148.1 L587.635,148.1 C588.739,148.1 589.635,148.988 589.635,150.084 L589.635,173.938 C589.635,175.034 588.739,175.922 587.635,175.922 L576.003,175.922 z"
         fill="#686868"
         id="path364" />
    </g>
    <g
       id="g376"
       inkscape:label="brl_arrl_brfr">
      <path
         d="M577.81,252 C576.816,252 576.01,251.193 576.01,250.199 L576.01,247.801 C576.01,246.806 576.816,246 577.81,246 L588.01,246 L588.01,222 L577.81,222 C576.816,222 576.01,221.193 576.01,220.199 L576.01,217.801 C576.01,216.806 576.816,216 577.81,216 L589.811,216 L589.811,216 L592.208,216 L592.209,216 L592.21,216 C593.132,216.186 592.742,215.973 593.389,216.621 C594.037,217.268 593.824,216.878 594.01,217.8 L594.01,250.2 C593.824,251.122 594.037,250.732 593.389,251.379 C592.742,252.027 593.132,251.814 592.21,252 L577.81,252 z"
         fill="#000000"
         id="path368" />
      <path
         d="M637.266,216 C638.261,216 639.067,216.806 639.067,217.801 L639.067,220.199 C639.067,221.194 638.261,222 637.267,222 L627.067,222 L627.067,246 L637.266,246 C638.261,246 639.067,246.806 639.067,247.801 L639.067,250.199 C639.067,251.194 638.261,252 637.267,252 L625.266,252 L625.265,252 L622.868,252 L622.867,252 L622.867,252 C621.945,251.814 622.334,252.027 621.687,251.379 C621.04,250.732 621.253,251.122 621.067,250.2 L621.067,217.8 C621.253,216.878 621.04,217.268 621.687,216.621 C622.334,215.973 621.945,216.186 622.867,216 L637.266,216 z"
         fill="#000000"
         id="path370" />
      <path
         d="M639.073,220.078 L639.073,247.9 L627.442,247.9 C626.337,247.9 625.442,247.012 625.442,245.916 L625.442,222.062 C625.442,220.966 626.337,220.078 627.442,220.078 L639.073,220.078 z"
         fill="#686868"
         id="path372" />
      <path
         d="M611.41,225.848 C612.407,226.424 612.168,226.022 612.394,226.849 L612.394,230.958 L618.296,230.958 C618.849,230.958 619.296,231.406 619.296,231.958 L619.296,236.039 C619.296,236.592 618.849,237.039 618.296,237.039 L612.394,237.039 L612.394,241.15 C612.394,241.92 611.561,242.401 610.894,242.016 L598.509,234.866 C597.843,234.481 597.843,233.519 598.509,233.134 L610.894,225.983 L611.41,225.848 z"
         fill="#000000"
         id="path374" />
    </g>
    <g
       id="arrowhead_up.svg"
       transform="matrix(0.99999789,0,0,1.0000089,7.5909349e-5,-9.2599435e-4)"
       inkscape:label="arrowhead_up">
      <path
         d="m 18.492,72.001 c 1.034,0.577 0.671,0.225 1.209,0.917 l 16.033,27.681 c 0.756,1.305 -0.189,2.936 -1.701,2.936 H 1.967 c -1.512,0 -2.457,-1.631 -1.701,-2.936 L 16.299,72.918 c 0.659,-0.977 1.127,-0.917 2.193,-0.917 z"
         fill="#000000"
         id="path378" />
    </g>
    <g
       id="arrowhead_left.svg"
       transform="translate(-12,7.590951e-5)"
       inkscape:label="arrowhead_left">
      <path
         d="m 103.534,90.492 c -0.577,1.034 -0.225,0.671 -0.917,1.209 L 74.936,107.734 C 73.631,108.49 72,107.545 72,106.033 V 73.967 c 0,-1.512 1.631,-2.457 2.936,-1.701 l 27.681,16.033 c 0.977,0.659 0.917,1.127 0.917,2.193 z"
         fill="#000000"
         id="path381" />
    </g>
  </g>
</svg>
